<?xml version="1.0" encoding="UTF-8" standalone="no"?>
<!DOCTYPE svg PUBLIC "-//W3C//DTD SVG 1.1//EN"
 "http://www.w3.org/Graphics/SVG/1.1/DTD/svg11.dtd">
<!-- Generated by graphviz version 2.38.0 (20140413.2041)
 -->
<!-- Title: Optimizer::integrate Pages: 1 -->
<svg width="293pt" height="46pt"
 viewBox="0.00 0.00 293.00 46.00" xmlns="http://www.w3.org/2000/svg" xmlns:xlink="http://www.w3.org/1999/xlink">
<g id="graph0" class="graph" transform="scale(1 1) rotate(0) translate(4 42)">
<title>Optimizer::integrate</title>
<!-- Node19 -->
<g id="node1" class="node"><title>Node19</title>
<polygon fill="#bfbfbf" stroke="black" points="0,-0.5 0,-19.5 102,-19.5 102,-0.5 0,-0.5"/>
<text text-anchor="middle" x="51" y="-7.5" font-family="Helvetica,sans-Serif" font-size="10.00">Optimizer::integrate</text>
</g>
<!-- Node20 -->
<g id="node2" class="node"><title>Node20</title>
<g id="a_node2"><a xlink:href="classOptimizer.html#a17bdb6fc4aa978eea62a3f1ec4216cdc" target="_top" xlink:title="Adaptive quadrature method. ">
<polygon fill="none" stroke="black" points="138,-0.5 138,-19.5 285,-19.5 285,-0.5 138,-0.5"/>
<text text-anchor="middle" x="211.5" y="-7.5" font-family="Helvetica,sans-Serif" font-size="10.00">Optimizer::adaptiveIntegration</text>
</a>
</g>
</g>
<!-- Node19&#45;&gt;Node20 -->
<g id="edge1" class="edge"><title>Node19&#45;&gt;Node20</title>
<path fill="none" stroke="midnightblue" d="M102.15,-10C110.299,-10 118.924,-10 127.607,-10"/>
<polygon fill="midnightblue" stroke="midnightblue" points="127.802,-13.5001 137.802,-10 127.802,-6.5001 127.802,-13.5001"/>
</g>
<!-- Node20&#45;&gt;Node20 -->
<g id="edge2" class="edge"><title>Node20&#45;&gt;Node20</title>
<path fill="none" stroke="midnightblue" d="M186.839,-19.7571C174.842,-28.5653 183.062,-38 211.5,-38 230.606,-38 240.586,-33.741 241.44,-28.2746"/>
<polygon fill="midnightblue" stroke="midnightblue" points="244.404,-26.4128 236.161,-19.7571 238.454,-30.1007 244.404,-26.4128"/>
</g>
</g>
</svg>
