<?xml version="1.0" encoding="UTF-8" standalone="no"?>
<!DOCTYPE svg PUBLIC "-//W3C//DTD SVG 1.1//EN"
 "http://www.w3.org/Graphics/SVG/1.1/DTD/svg11.dtd">
<!-- Generated by graphviz version 2.38.0 (20140413.2041)
 -->
<!-- Title: Optimizer::minimize Pages: 1 -->
<svg width="291pt" height="46pt"
 viewBox="0.00 0.00 291.00 46.00" xmlns="http://www.w3.org/2000/svg" xmlns:xlink="http://www.w3.org/1999/xlink">
<g id="graph0" class="graph" transform="scale(1 1) rotate(0) translate(4 42)">
<title>Optimizer::minimize</title>
<!-- Node35 -->
<g id="node1" class="node"><title>Node35</title>
<polygon fill="#bfbfbf" stroke="black" points="0,-0.5 0,-19.5 104,-19.5 104,-0.5 0,-0.5"/>
<text text-anchor="middle" x="52" y="-7.5" font-family="Helvetica,sans-Serif" font-size="10.00">Optimizer::minimize</text>
</g>
<!-- Node36 -->
<g id="node2" class="node"><title>Node36</title>
<g id="a_node2"><a xlink:href="classOptimizer.html#aa626db2b39521740bf10c20aec3c57ac" target="_top" xlink:title="Optimizer::getExecutionTime">
<polygon fill="none" stroke="black" points="140,-0.5 140,-19.5 283,-19.5 283,-0.5 140,-0.5"/>
<text text-anchor="middle" x="211.5" y="-7.5" font-family="Helvetica,sans-Serif" font-size="10.00">Optimizer::getExecutionTime</text>
</a>
</g>
</g>
<!-- Node35&#45;&gt;Node36 -->
<g id="edge1" class="edge"><title>Node35&#45;&gt;Node36</title>
<path fill="none" stroke="midnightblue" d="M104.136,-10C112.335,-10 120.991,-10 129.681,-10"/>
<polygon fill="midnightblue" stroke="midnightblue" points="129.873,-13.5001 139.872,-10 129.872,-6.5001 129.873,-13.5001"/>
</g>
<!-- Node36&#45;&gt;Node36 -->
<g id="edge2" class="edge"><title>Node36&#45;&gt;Node36</title>
<path fill="none" stroke="midnightblue" d="M187.148,-19.7571C175.301,-28.5653 183.418,-38 211.5,-38 229.929,-38 239.76,-33.9368 240.992,-28.6539"/>
<polygon fill="midnightblue" stroke="midnightblue" points="243.886,-26.665 235.852,-19.7571 237.824,-30.1668 243.886,-26.665"/>
</g>
</g>
</svg>
