<?xml version="1.0" encoding="UTF-8" standalone="no"?>
<!DOCTYPE svg PUBLIC "-//W3C//DTD SVG 1.1//EN"
 "http://www.w3.org/Graphics/SVG/1.1/DTD/svg11.dtd">
<!-- Generated by graphviz version 2.38.0 (20140413.2041)
 -->
<!-- Title: Optimizer::monteCarloIntegration Pages: 1 -->
<svg width="348pt" height="46pt"
 viewBox="0.00 0.00 348.00 46.00" xmlns="http://www.w3.org/2000/svg" xmlns:xlink="http://www.w3.org/1999/xlink">
<g id="graph0" class="graph" transform="scale(1 1) rotate(0) translate(4 42)">
<title>Optimizer::monteCarloIntegration</title>
<!-- Node38 -->
<g id="node1" class="node"><title>Node38</title>
<polygon fill="#bfbfbf" stroke="black" points="0,-0.5 0,-19.5 161,-19.5 161,-0.5 0,-0.5"/>
<text text-anchor="middle" x="80.5" y="-7.5" font-family="Helvetica,sans-Serif" font-size="10.00">Optimizer::monteCarloIntegration</text>
</g>
<!-- Node39 -->
<g id="node2" class="node"><title>Node39</title>
<g id="a_node2"><a xlink:href="classOptimizer.html#aa626db2b39521740bf10c20aec3c57ac" target="_top" xlink:title="Optimizer::getExecutionTime">
<polygon fill="none" stroke="black" points="197,-0.5 197,-19.5 340,-19.5 340,-0.5 197,-0.5"/>
<text text-anchor="middle" x="268.5" y="-7.5" font-family="Helvetica,sans-Serif" font-size="10.00">Optimizer::getExecutionTime</text>
</a>
</g>
</g>
<!-- Node38&#45;&gt;Node39 -->
<g id="edge1" class="edge"><title>Node38&#45;&gt;Node39</title>
<path fill="none" stroke="midnightblue" d="M161.19,-10C169.602,-10 178.162,-10 186.588,-10"/>
<polygon fill="midnightblue" stroke="midnightblue" points="186.779,-13.5001 196.779,-10 186.779,-6.5001 186.779,-13.5001"/>
</g>
<!-- Node39&#45;&gt;Node39 -->
<g id="edge2" class="edge"><title>Node39&#45;&gt;Node39</title>
<path fill="none" stroke="midnightblue" d="M239.524,-19.7571C225.427,-28.5653 235.086,-38 268.5,-38 291.472,-38 303.216,-33.5406 303.732,-27.8913"/>
<polygon fill="midnightblue" stroke="midnightblue" points="306.347,-25.5501 297.476,-19.7571 300.798,-29.8176 306.347,-25.5501"/>
</g>
</g>
</svg>
