<?xml version="1.0" encoding="UTF-8" standalone="no"?>
<!DOCTYPE svg PUBLIC "-//W3C//DTD SVG 1.1//EN"
 "http://www.w3.org/Graphics/SVG/1.1/DTD/svg11.dtd">
<!-- Generated by graphviz version 2.38.0 (20140413.2041)
 -->
<!-- Title: Optimizer Pages: 1 -->
<svg width="522pt" height="358pt"
 viewBox="0.00 0.00 522.00 358.00" xmlns="http://www.w3.org/2000/svg" xmlns:xlink="http://www.w3.org/1999/xlink">
<g id="graph0" class="graph" transform="scale(1 1) rotate(0) translate(4 354)">
<title>Optimizer</title>
<!-- Node1 -->
<g id="node1" class="node"><title>Node1</title>
<polygon fill="#bfbfbf" stroke="black" points="224,-0.5 224,-233.5 358,-233.5 358,-0.5 224,-0.5"/>
<text text-anchor="middle" x="291" y="-221.5" font-family="Helvetica,sans-Serif" font-size="10.00">Optimizer</text>
<polyline fill="none" stroke="black" points="224,-214.5 358,-214.5 "/>
<text text-anchor="middle" x="291" y="-202.5" font-family="Helvetica,sans-Serif" font-size="10.00"> </text>
<polyline fill="none" stroke="black" points="224,-195.5 358,-195.5 "/>
<text text-anchor="start" x="232" y="-183.5" font-family="Helvetica,sans-Serif" font-size="10.00">+ Optimizer()</text>
<text text-anchor="start" x="232" y="-172.5" font-family="Helvetica,sans-Serif" font-size="10.00">+ endClock()</text>
<text text-anchor="start" x="232" y="-161.5" font-family="Helvetica,sans-Serif" font-size="10.00">+ getIterations()</text>
<text text-anchor="start" x="232" y="-150.5" font-family="Helvetica,sans-Serif" font-size="10.00">+ getError()</text>
<text text-anchor="start" x="232" y="-139.5" font-family="Helvetica,sans-Serif" font-size="10.00">+ getEndReason()</text>
<text text-anchor="start" x="232" y="-128.5" font-family="Helvetica,sans-Serif" font-size="10.00">+ findRoot()</text>
<text text-anchor="start" x="232" y="-117.5" font-family="Helvetica,sans-Serif" font-size="10.00">+ minimize()</text>
<text text-anchor="start" x="232" y="-106.5" font-family="Helvetica,sans-Serif" font-size="10.00">+ minimize()</text>
<text text-anchor="start" x="232" y="-95.5" font-family="Helvetica,sans-Serif" font-size="10.00">+ integrate()</text>
<text text-anchor="start" x="232" y="-84.5" font-family="Helvetica,sans-Serif" font-size="10.00">+ adaptiveIntegration()</text>
<text text-anchor="start" x="232" y="-73.5" font-family="Helvetica,sans-Serif" font-size="10.00">+ monteCarloIntegration()</text>
<text text-anchor="start" x="232" y="-62.5" font-family="Helvetica,sans-Serif" font-size="10.00">+ monteCarloVolume()</text>
<text text-anchor="start" x="232" y="-51.5" font-family="Helvetica,sans-Serif" font-size="10.00">+ getExecutionTime()</text>
<text text-anchor="start" x="232" y="-40.5" font-family="Helvetica,sans-Serif" font-size="10.00">&#45; myRandom()</text>
<text text-anchor="start" x="232" y="-29.5" font-family="Helvetica,sans-Serif" font-size="10.00">&#45; myRandom()</text>
<text text-anchor="start" x="232" y="-18.5" font-family="Helvetica,sans-Serif" font-size="10.00">&#45; myRandom()</text>
<text text-anchor="start" x="232" y="-7.5" font-family="Helvetica,sans-Serif" font-size="10.00">&#45; innerAdaptiveIntegration()</text>
</g>
<!-- Node2 -->
<g id="node2" class="node"><title>Node2</title>
<polygon fill="none" stroke="#bfbfbf" points="0,-281.5 0,-349.5 122,-349.5 122,-281.5 0,-281.5"/>
<text text-anchor="start" x="8" y="-337.5" font-family="Helvetica,sans-Serif" font-size="10.00">uniform_real_distribution</text>
<text text-anchor="middle" x="61" y="-326.5" font-family="Helvetica,sans-Serif" font-size="10.00">&lt; double &gt;</text>
<polyline fill="none" stroke="#bfbfbf" points="0,-319.5 122,-319.5 "/>
<text text-anchor="middle" x="61" y="-307.5" font-family="Helvetica,sans-Serif" font-size="10.00"> </text>
<polyline fill="none" stroke="#bfbfbf" points="0,-300.5 122,-300.5 "/>
<text text-anchor="middle" x="61" y="-288.5" font-family="Helvetica,sans-Serif" font-size="10.00"> </text>
</g>
<!-- Node2&#45;&gt;Node1 -->
<g id="edge1" class="edge"><title>Node2&#45;&gt;Node1</title>
<path fill="none" stroke="#404040" d="M75.2634,-281.443C80.5649,-271.331 87.2165,-260.616 95,-252 128.465,-214.954 174.135,-182.969 212.971,-159.548"/>
<polygon fill="none" stroke="#404040" points="213.405,-159.29 216.527,-152.79 223.728,-153.172 220.606,-159.672 213.405,-159.29"/>
<text text-anchor="middle" x="147" y="-255" font-family="Helvetica,sans-Serif" font-size="10.00"> &#45;myUniformDistribution</text>
</g>
<!-- Node3 -->
<g id="node3" class="node"><title>Node3</title>
<polygon fill="none" stroke="#bfbfbf" points="167.5,-287 167.5,-344 208.5,-344 208.5,-287 167.5,-287"/>
<text text-anchor="middle" x="188" y="-332" font-family="Helvetica,sans-Serif" font-size="10.00">string</text>
<polyline fill="none" stroke="#bfbfbf" points="167.5,-325 208.5,-325 "/>
<text text-anchor="middle" x="188" y="-313" font-family="Helvetica,sans-Serif" font-size="10.00"> </text>
<polyline fill="none" stroke="#bfbfbf" points="167.5,-306 208.5,-306 "/>
<text text-anchor="middle" x="188" y="-294" font-family="Helvetica,sans-Serif" font-size="10.00"> </text>
</g>
<!-- Node3&#45;&gt;Node1 -->
<g id="edge2" class="edge"><title>Node3&#45;&gt;Node1</title>
<path fill="none" stroke="#404040" d="M194.704,-286.851C197.824,-275.773 201.969,-263.043 207,-252 210.405,-244.528 214.16,-236.973 218.138,-229.456"/>
<polygon fill="none" stroke="#404040" points="218.164,-229.409 217.516,-222.227 223.897,-218.867 224.544,-226.049 218.164,-229.409"/>
<text text-anchor="middle" x="235" y="-255" font-family="Helvetica,sans-Serif" font-size="10.00"> &#45;endReason</text>
</g>
<!-- Node4 -->
<g id="node4" class="node"><title>Node4</title>
<polygon fill="none" stroke="#bfbfbf" points="239.5,-287 239.5,-344 284.5,-344 284.5,-287 239.5,-287"/>
<text text-anchor="middle" x="262" y="-332" font-family="Helvetica,sans-Serif" font-size="10.00">double</text>
<polyline fill="none" stroke="#bfbfbf" points="239.5,-325 284.5,-325 "/>
<text text-anchor="middle" x="262" y="-313" font-family="Helvetica,sans-Serif" font-size="10.00"> </text>
<polyline fill="none" stroke="#bfbfbf" points="239.5,-306 284.5,-306 "/>
<text text-anchor="middle" x="262" y="-294" font-family="Helvetica,sans-Serif" font-size="10.00"> </text>
</g>
<!-- Node4&#45;&gt;Node1 -->
<g id="edge3" class="edge"><title>Node4&#45;&gt;Node1</title>
<path fill="none" stroke="#404040" d="M264.218,-286.759C265.202,-275.898 266.484,-263.345 268,-252 268.274,-249.949 268.556,-247.882 268.846,-245.801"/>
<polygon fill="none" stroke="#404040" points="268.868,-245.644 265.764,-239.135 270.578,-233.766 273.683,-240.275 268.868,-245.644"/>
<text text-anchor="middle" x="281" y="-255" font-family="Helvetica,sans-Serif" font-size="10.00"> &#45;error</text>
</g>
<!-- Node5 -->
<g id="node5" class="node"><title>Node5</title>
<polygon fill="none" stroke="#bfbfbf" points="302.5,-287 302.5,-344 337.5,-344 337.5,-287 302.5,-287"/>
<text text-anchor="middle" x="320" y="-332" font-family="Helvetica,sans-Serif" font-size="10.00">float</text>
<polyline fill="none" stroke="#bfbfbf" points="302.5,-325 337.5,-325 "/>
<text text-anchor="middle" x="320" y="-313" font-family="Helvetica,sans-Serif" font-size="10.00"> </text>
<polyline fill="none" stroke="#bfbfbf" points="302.5,-306 337.5,-306 "/>
<text text-anchor="middle" x="320" y="-294" font-family="Helvetica,sans-Serif" font-size="10.00"> </text>
</g>
<!-- Node5&#45;&gt;Node1 -->
<g id="edge4" class="edge"><title>Node5&#45;&gt;Node1</title>
<path fill="none" stroke="#404040" d="M315.907,-286.763C314.202,-275.214 312.092,-260.917 309.827,-245.569"/>
<polygon fill="none" stroke="#404040" points="309.821,-245.527 304.988,-240.175 308.069,-233.655 312.902,-239.007 309.821,-245.527"/>
<text text-anchor="middle" x="348" y="-255" font-family="Helvetica,sans-Serif" font-size="10.00"> &#45;executionTime</text>
</g>
<!-- Node6 -->
<g id="node6" class="node"><title>Node6</title>
<polygon fill="none" stroke="#bfbfbf" points="374,-287 374,-344 444,-344 444,-287 374,-287"/>
<text text-anchor="middle" x="409" y="-332" font-family="Helvetica,sans-Serif" font-size="10.00">mt19937_64</text>
<polyline fill="none" stroke="#bfbfbf" points="374,-325 444,-325 "/>
<text text-anchor="middle" x="409" y="-313" font-family="Helvetica,sans-Serif" font-size="10.00"> </text>
<polyline fill="none" stroke="#bfbfbf" points="374,-306 444,-306 "/>
<text text-anchor="middle" x="409" y="-294" font-family="Helvetica,sans-Serif" font-size="10.00"> </text>
</g>
<!-- Node6&#45;&gt;Node1 -->
<g id="edge5" class="edge"><title>Node6&#45;&gt;Node1</title>
<path fill="none" stroke="#404040" d="M401.094,-286.724C397.46,-275.627 392.684,-262.917 387,-252 380.495,-239.507 372.943,-226.864 364.986,-214.592"/>
<polygon fill="none" stroke="#404040" points="364.849,-214.385 358.201,-211.592 358.222,-204.381 364.87,-207.174 364.849,-214.385"/>
<text text-anchor="middle" x="423.5" y="-255" font-family="Helvetica,sans-Serif" font-size="10.00"> &#45;myMersenne</text>
</g>
<!-- Node7 -->
<g id="node7" class="node"><title>Node7</title>
<polygon fill="none" stroke="#bfbfbf" points="480.5,-287 480.5,-344 509.5,-344 509.5,-287 480.5,-287"/>
<text text-anchor="middle" x="495" y="-332" font-family="Helvetica,sans-Serif" font-size="10.00">int</text>
<polyline fill="none" stroke="#bfbfbf" points="480.5,-325 509.5,-325 "/>
<text text-anchor="middle" x="495" y="-313" font-family="Helvetica,sans-Serif" font-size="10.00"> </text>
<polyline fill="none" stroke="#bfbfbf" points="480.5,-306 509.5,-306 "/>
<text text-anchor="middle" x="495" y="-294" font-family="Helvetica,sans-Serif" font-size="10.00"> </text>
</g>
<!-- Node7&#45;&gt;Node1 -->
<g id="edge6" class="edge"><title>Node7&#45;&gt;Node1</title>
<path fill="none" stroke="#404040" d="M481.99,-286.894C475.888,-275.454 467.979,-262.445 459,-252 432.666,-221.365 398.553,-192.672 367.953,-169.759"/>
<polygon fill="none" stroke="#404040" points="367.81,-169.654 360.607,-169.309 358.155,-162.528 365.358,-162.873 367.81,-169.654"/>
<text text-anchor="middle" x="491" y="-255" font-family="Helvetica,sans-Serif" font-size="10.00"> &#45;iterations</text>
</g>
</g>
</svg>
