<?xml version="1.0" encoding="UTF-8" standalone="no"?>
<!DOCTYPE svg PUBLIC "-//W3C//DTD SVG 1.1//EN"
 "http://www.w3.org/Graphics/SVG/1.1/DTD/svg11.dtd">
<!-- Generated by graphviz version 2.38.0 (20140413.2041)
 -->
<!-- Title: Optimizer::minimize Pages: 1 -->
<svg width="295pt" height="46pt"
 viewBox="0.00 0.00 295.00 46.00" xmlns="http://www.w3.org/2000/svg" xmlns:xlink="http://www.w3.org/1999/xlink">
<g id="graph0" class="graph" transform="scale(1 1) rotate(0) translate(4 42)">
<title>Optimizer::minimize</title>
<!-- Node24 -->
<g id="node1" class="node"><title>Node24</title>
<polygon fill="#bfbfbf" stroke="black" points="0,-0.5 0,-19.5 104,-19.5 104,-0.5 0,-0.5"/>
<text text-anchor="middle" x="52" y="-7.5" font-family="Helvetica,sans-Serif" font-size="10.00">Optimizer::minimize</text>
</g>
<!-- Node25 -->
<g id="node2" class="node"><title>Node25</title>
<g id="a_node2"><a xlink:href="classOptimizer.html#a17bdb6fc4aa978eea62a3f1ec4216cdc" target="_top" xlink:title="Adaptive quadrature method. ">
<polygon fill="none" stroke="black" points="140,-0.5 140,-19.5 287,-19.5 287,-0.5 140,-0.5"/>
<text text-anchor="middle" x="213.5" y="-7.5" font-family="Helvetica,sans-Serif" font-size="10.00">Optimizer::adaptiveIntegration</text>
</a>
</g>
</g>
<!-- Node24&#45;&gt;Node25 -->
<g id="edge1" class="edge"><title>Node24&#45;&gt;Node25</title>
<path fill="none" stroke="midnightblue" d="M104.345,-10C112.461,-10 121.029,-10 129.646,-10"/>
<polygon fill="midnightblue" stroke="midnightblue" points="129.759,-13.5001 139.759,-10 129.758,-6.5001 129.759,-13.5001"/>
</g>
<!-- Node25&#45;&gt;Node25 -->
<g id="edge2" class="edge"><title>Node25&#45;&gt;Node25</title>
<path fill="none" stroke="midnightblue" d="M188.839,-19.7571C176.842,-28.5653 185.062,-38 213.5,-38 232.606,-38 242.586,-33.741 243.44,-28.2746"/>
<polygon fill="midnightblue" stroke="midnightblue" points="246.404,-26.4128 238.161,-19.7571 240.454,-30.1007 246.404,-26.4128"/>
</g>
</g>
</svg>
