<?xml version="1.0" encoding="UTF-8" standalone="no"?>
<!DOCTYPE svg PUBLIC "-//W3C//DTD SVG 1.1//EN"
 "http://www.w3.org/Graphics/SVG/1.1/DTD/svg11.dtd">
<!-- Generated by graphviz version 2.38.0 (20140413.2041)
 -->
<!-- Title: Optimizer::integrate Pages: 1 -->
<svg width="289pt" height="46pt"
 viewBox="0.00 0.00 289.00 46.00" xmlns="http://www.w3.org/2000/svg" xmlns:xlink="http://www.w3.org/1999/xlink">
<g id="graph0" class="graph" transform="scale(1 1) rotate(0) translate(4 42)">
<title>Optimizer::integrate</title>
<!-- Node30 -->
<g id="node1" class="node"><title>Node30</title>
<polygon fill="#bfbfbf" stroke="black" points="0,-0.5 0,-19.5 102,-19.5 102,-0.5 0,-0.5"/>
<text text-anchor="middle" x="51" y="-7.5" font-family="Helvetica,sans-Serif" font-size="10.00">Optimizer::integrate</text>
</g>
<!-- Node31 -->
<g id="node2" class="node"><title>Node31</title>
<g id="a_node2"><a xlink:href="classOptimizer.html#aa626db2b39521740bf10c20aec3c57ac" target="_top" xlink:title="Optimizer::getExecutionTime">
<polygon fill="none" stroke="black" points="138,-0.5 138,-19.5 281,-19.5 281,-0.5 138,-0.5"/>
<text text-anchor="middle" x="209.5" y="-7.5" font-family="Helvetica,sans-Serif" font-size="10.00">Optimizer::getExecutionTime</text>
</a>
</g>
</g>
<!-- Node30&#45;&gt;Node31 -->
<g id="edge1" class="edge"><title>Node30&#45;&gt;Node31</title>
<path fill="none" stroke="midnightblue" d="M102.379,-10C110.535,-10 119.157,-10 127.818,-10"/>
<polygon fill="midnightblue" stroke="midnightblue" points="127.978,-13.5001 137.978,-10 127.978,-6.5001 127.978,-13.5001"/>
</g>
<!-- Node31&#45;&gt;Node31 -->
<g id="edge2" class="edge"><title>Node31&#45;&gt;Node31</title>
<path fill="none" stroke="midnightblue" d="M185.148,-19.7571C173.301,-28.5653 181.418,-38 209.5,-38 227.929,-38 237.76,-33.9368 238.992,-28.6539"/>
<polygon fill="midnightblue" stroke="midnightblue" points="241.886,-26.665 233.852,-19.7571 235.824,-30.1668 241.886,-26.665"/>
</g>
</g>
</svg>
