<?xml version="1.0" encoding="UTF-8" standalone="no"?>
<!DOCTYPE svg PUBLIC "-//W3C//DTD SVG 1.1//EN"
 "http://www.w3.org/Graphics/SVG/1.1/DTD/svg11.dtd">
<!-- Generated by graphviz version 2.38.0 (20140413.2041)
 -->
<!-- Title: FunctionUtils Pages: 1 -->
<svg width="151pt" height="215pt"
 viewBox="0.00 0.00 151.00 215.00" xmlns="http://www.w3.org/2000/svg" xmlns:xlink="http://www.w3.org/1999/xlink">
<g id="graph0" class="graph" transform="scale(1 1) rotate(0) translate(4 211)">
<title>FunctionUtils</title>
<!-- Node1 -->
<g id="node1" class="node"><title>Node1</title>
<polygon fill="#bfbfbf" stroke="black" points="-7.10543e-15,-0.5 -7.10543e-15,-101.5 102,-101.5 102,-0.5 -7.10543e-15,-0.5"/>
<text text-anchor="middle" x="51" y="-89.5" font-family="Helvetica,sans-Serif" font-size="10.00">FunctionUtils</text>
<polyline fill="none" stroke="black" points="-7.10543e-15,-82.5 102,-82.5 "/>
<text text-anchor="middle" x="51" y="-70.5" font-family="Helvetica,sans-Serif" font-size="10.00"> </text>
<polyline fill="none" stroke="black" points="-7.10543e-15,-63.5 102,-63.5 "/>
<text text-anchor="start" x="8" y="-51.5" font-family="Helvetica,sans-Serif" font-size="10.00">+ derivative()</text>
<text text-anchor="start" x="8" y="-40.5" font-family="Helvetica,sans-Serif" font-size="10.00">+ partialDerivative()</text>
<text text-anchor="start" x="8" y="-29.5" font-family="Helvetica,sans-Serif" font-size="10.00">+ rectangleRule()</text>
<text text-anchor="start" x="8" y="-18.5" font-family="Helvetica,sans-Serif" font-size="10.00">+ trapezoidRule()</text>
<text text-anchor="start" x="8" y="-7.5" font-family="Helvetica,sans-Serif" font-size="10.00">+ simpsonRule()</text>
</g>
<!-- Node2 -->
<g id="node2" class="node"><title>Node2</title>
<polygon fill="none" stroke="#bfbfbf" points="28.5,-149.5 28.5,-206.5 73.5,-206.5 73.5,-149.5 28.5,-149.5"/>
<text text-anchor="middle" x="51" y="-194.5" font-family="Helvetica,sans-Serif" font-size="10.00">double</text>
<polyline fill="none" stroke="#bfbfbf" points="28.5,-187.5 73.5,-187.5 "/>
<text text-anchor="middle" x="51" y="-175.5" font-family="Helvetica,sans-Serif" font-size="10.00"> </text>
<polyline fill="none" stroke="#bfbfbf" points="28.5,-168.5 73.5,-168.5 "/>
<text text-anchor="middle" x="51" y="-156.5" font-family="Helvetica,sans-Serif" font-size="10.00"> </text>
</g>
<!-- Node2&#45;&gt;Node1 -->
<g id="edge1" class="edge"><title>Node2&#45;&gt;Node1</title>
<path fill="none" stroke="#404040" d="M51,-149.258C51,-138.793 51,-126.422 51,-114.072"/>
<polygon fill="none" stroke="#404040" points="51.0001,-113.802 47,-107.802 51,-101.802 55,-107.802 51.0001,-113.802"/>
<text text-anchor="middle" x="97" y="-123" font-family="Helvetica,sans-Serif" font-size="10.00"> &#45;sqrtMachineEpsilon</text>
</g>
</g>
</svg>
