<?xml version="1.0" encoding="UTF-8" standalone="no"?>
<!DOCTYPE svg PUBLIC "-//W3C//DTD SVG 1.1//EN"
 "http://www.w3.org/Graphics/SVG/1.1/DTD/svg11.dtd">
<!-- Generated by graphviz version 2.38.0 (20140413.2041)
 -->
<!-- Title: Optimizer::adaptiveIntegration Pages: 1 -->
<svg width="344pt" height="256pt"
 viewBox="0.00 0.00 344.00 256.00" xmlns="http://www.w3.org/2000/svg" xmlns:xlink="http://www.w3.org/1999/xlink">
<g id="graph0" class="graph" transform="scale(1 1) rotate(0) translate(4 252)">
<title>Optimizer::adaptiveIntegration</title>
<!-- Node1 -->
<g id="node1" class="node"><title>Node1</title>
<polygon fill="#bfbfbf" stroke="black" points="0,-114.5 0,-133.5 147,-133.5 147,-114.5 0,-114.5"/>
<text text-anchor="middle" x="73.5" y="-121.5" font-family="Helvetica,sans-Serif" font-size="10.00">Optimizer::adaptiveIntegration</text>
</g>
<!-- Node1&#45;&gt;Node1 -->
<g id="edge8" class="edge"><title>Node1&#45;&gt;Node1</title>
<path fill="none" stroke="midnightblue" d="M38.6426,-141.891C39.1531,-147.541 50.7722,-152 73.5,-152 106.559,-152 116.115,-142.565 102.168,-133.757"/>
<polygon fill="midnightblue" stroke="midnightblue" points="41.5619,-143.835 44.832,-133.757 35.9912,-139.596 41.5619,-143.835"/>
</g>
<!-- Node2 -->
<g id="node2" class="node"><title>Node2</title>
<g id="a_node2"><a xlink:href="main_8cpp.html#a3eb23d002f0ee0cdfeb4408d6e0ed6fb" target="_top" xlink:title="testSingleRoot">
<polygon fill="none" stroke="black" points="219,-228.5 219,-247.5 300,-247.5 300,-228.5 219,-228.5"/>
<text text-anchor="middle" x="259.5" y="-235.5" font-family="Helvetica,sans-Serif" font-size="10.00">testSingleRoot</text>
</a>
</g>
</g>
<!-- Node1&#45;&gt;Node2 -->
<g id="edge1" class="edge"><title>Node1&#45;&gt;Node2</title>
<path fill="none" stroke="midnightblue" d="M89.5096,-141.459C108.93,-162.932 144.827,-198.988 183,-219 194.013,-224.774 206.862,-228.851 218.804,-231.706"/>
<polygon fill="midnightblue" stroke="midnightblue" points="91.9312,-138.914 82.6801,-133.75 86.6917,-143.556 91.9312,-138.914"/>
</g>
<!-- Node3 -->
<g id="node3" class="node"><title>Node3</title>
<g id="a_node3"><a xlink:href="main_8cpp.html#ad2b1b5902c7452f46fb581ba1d8cb9d3" target="_top" xlink:title="testSingleVariableMinimization">
<polygon fill="none" stroke="black" points="185,-190.5 185,-209.5 334,-209.5 334,-190.5 185,-190.5"/>
<text text-anchor="middle" x="259.5" y="-197.5" font-family="Helvetica,sans-Serif" font-size="10.00">testSingleVariableMinimization</text>
</a>
</g>
</g>
<!-- Node1&#45;&gt;Node3 -->
<g id="edge2" class="edge"><title>Node1&#45;&gt;Node3</title>
<path fill="none" stroke="midnightblue" d="M98.5263,-138.75C120.014,-151.418 152.702,-169.418 183,-181 192.595,-184.668 203.147,-187.833 213.243,-190.47"/>
<polygon fill="midnightblue" stroke="midnightblue" points="100.146,-135.641 89.7667,-133.515 96.5548,-141.65 100.146,-135.641"/>
</g>
<!-- Node4 -->
<g id="node4" class="node"><title>Node4</title>
<g id="a_node4"><a xlink:href="main_8cpp.html#a1347d10de51ac5ab2e3cac88e1ef77f3" target="_top" xlink:title="testDoubleVariableMinimization">
<polygon fill="none" stroke="black" points="183,-152.5 183,-171.5 336,-171.5 336,-152.5 183,-152.5"/>
<text text-anchor="middle" x="259.5" y="-159.5" font-family="Helvetica,sans-Serif" font-size="10.00">testDoubleVariableMinimization</text>
</a>
</g>
</g>
<!-- Node1&#45;&gt;Node4 -->
<g id="edge3" class="edge"><title>Node1&#45;&gt;Node4</title>
<path fill="none" stroke="midnightblue" d="M131.061,-135.681C157.154,-141.07 187.738,-147.386 212.403,-152.48"/>
<polygon fill="midnightblue" stroke="midnightblue" points="131.432,-132.184 120.931,-133.589 130.016,-139.039 131.432,-132.184"/>
</g>
<!-- Node5 -->
<g id="node5" class="node"><title>Node5</title>
<g id="a_node5"><a xlink:href="main_8cpp.html#a17be32f46e8ed8dbbe9a168cbcbbd375" target="_top" xlink:title="testSingleIntegral">
<polygon fill="none" stroke="black" points="213.5,-114.5 213.5,-133.5 305.5,-133.5 305.5,-114.5 213.5,-114.5"/>
<text text-anchor="middle" x="259.5" y="-121.5" font-family="Helvetica,sans-Serif" font-size="10.00">testSingleIntegral</text>
</a>
</g>
</g>
<!-- Node1&#45;&gt;Node5 -->
<g id="edge4" class="edge"><title>Node1&#45;&gt;Node5</title>
<path fill="none" stroke="midnightblue" d="M157.239,-124C176.524,-124 196.358,-124 213.304,-124"/>
<polygon fill="midnightblue" stroke="midnightblue" points="157.222,-120.5 147.222,-124 157.222,-127.5 157.222,-120.5"/>
</g>
<!-- Node6 -->
<g id="node6" class="node"><title>Node6</title>
<g id="a_node6"><a xlink:href="main_8cpp.html#ae66f6b31b5ad750f1fe042a706a4e3d4" target="_top" xlink:title="main">
<polygon fill="none" stroke="black" points="240.5,-76.5 240.5,-95.5 278.5,-95.5 278.5,-76.5 240.5,-76.5"/>
<text text-anchor="middle" x="259.5" y="-83.5" font-family="Helvetica,sans-Serif" font-size="10.00">main</text>
</a>
</g>
</g>
<!-- Node1&#45;&gt;Node6 -->
<g id="edge5" class="edge"><title>Node1&#45;&gt;Node6</title>
<path fill="none" stroke="midnightblue" d="M130.737,-112.386C168.236,-104.642 215.123,-94.9583 240.375,-89.7432"/>
<polygon fill="midnightblue" stroke="midnightblue" points="130.016,-108.961 120.931,-114.411 131.432,-115.816 130.016,-108.961"/>
</g>
<!-- Node7 -->
<g id="node7" class="node"><title>Node7</title>
<g id="a_node7"><a xlink:href="classOptimizer.html#a7dc8c48b8f3302b2fedba6e81bc3d4d1" target="_top" xlink:title="Two&#45;dimensional function minimization procedure via the gradient descent method. ">
<polygon fill="none" stroke="black" points="207.5,-38.5 207.5,-57.5 311.5,-57.5 311.5,-38.5 207.5,-38.5"/>
<text text-anchor="middle" x="259.5" y="-45.5" font-family="Helvetica,sans-Serif" font-size="10.00">Optimizer::minimize</text>
</a>
</g>
</g>
<!-- Node1&#45;&gt;Node7 -->
<g id="edge6" class="edge"><title>Node1&#45;&gt;Node7</title>
<path fill="none" stroke="midnightblue" d="M98.5263,-109.25C120.014,-96.5821 152.702,-78.582 183,-67 192.595,-63.3321 203.147,-60.1674 213.243,-57.5305"/>
<polygon fill="midnightblue" stroke="midnightblue" points="96.5548,-106.35 89.7667,-114.485 100.146,-112.359 96.5548,-106.35"/>
</g>
<!-- Node8 -->
<g id="node8" class="node"><title>Node8</title>
<g id="a_node8"><a xlink:href="classOptimizer.html#a183a038337eabc19367932a690ec5c29" target="_top" xlink:title="Numerically approximates the integral of a function. ">
<polygon fill="none" stroke="black" points="208.5,-0.5 208.5,-19.5 310.5,-19.5 310.5,-0.5 208.5,-0.5"/>
<text text-anchor="middle" x="259.5" y="-7.5" font-family="Helvetica,sans-Serif" font-size="10.00">Optimizer::integrate</text>
</a>
</g>
</g>
<!-- Node1&#45;&gt;Node8 -->
<g id="edge7" class="edge"><title>Node1&#45;&gt;Node8</title>
<path fill="none" stroke="midnightblue" d="M89.5096,-106.541C108.93,-85.068 144.827,-49.0117 183,-29 190.781,-24.9208 199.478,-21.6882 208.125,-19.1352"/>
<polygon fill="midnightblue" stroke="midnightblue" points="86.6917,-104.444 82.6801,-114.25 91.9312,-109.086 86.6917,-104.444"/>
</g>
</g>
</svg>
