<?xml version="1.0" encoding="UTF-8" standalone="no"?>
<!DOCTYPE svg PUBLIC "-//W3C//DTD SVG 1.1//EN"
 "http://www.w3.org/Graphics/SVG/1.1/DTD/svg11.dtd">
<!-- Generated by graphviz version 2.38.0 (20140413.2041)
 -->
<!-- Title: Optimizer::getExecutionTime Pages: 1 -->
<svg width="422pt" height="408pt"
 viewBox="0.00 0.00 422.00 408.00" xmlns="http://www.w3.org/2000/svg" xmlns:xlink="http://www.w3.org/1999/xlink">
<g id="graph0" class="graph" transform="scale(1 1) rotate(0) translate(4 404)">
<title>Optimizer::getExecutionTime</title>
<!-- Node14 -->
<g id="node1" class="node"><title>Node14</title>
<polygon fill="#bfbfbf" stroke="black" points="0,-190.5 0,-209.5 143,-209.5 143,-190.5 0,-190.5"/>
<text text-anchor="middle" x="71.5" y="-197.5" font-family="Helvetica,sans-Serif" font-size="10.00">Optimizer::getExecutionTime</text>
</g>
<!-- Node14&#45;&gt;Node14 -->
<g id="edge13" class="edge"><title>Node14&#45;&gt;Node14</title>
<path fill="none" stroke="midnightblue" d="M36.2678,-217.891C36.7838,-223.541 48.5278,-228 71.5,-228 104.914,-228 114.573,-218.565 100.476,-209.757"/>
<polygon fill="midnightblue" stroke="midnightblue" points="39.2017,-219.818 42.5237,-209.757 33.6529,-215.55 39.2017,-219.818"/>
</g>
<!-- Node15 -->
<g id="node2" class="node"><title>Node15</title>
<g id="a_node2"><a xlink:href="main_8cpp.html#a3eb23d002f0ee0cdfeb4408d6e0ed6fb" target="_top" xlink:title="testSingleRoot">
<polygon fill="none" stroke="black" points="219,-380.5 219,-399.5 300,-399.5 300,-380.5 219,-380.5"/>
<text text-anchor="middle" x="259.5" y="-387.5" font-family="Helvetica,sans-Serif" font-size="10.00">testSingleRoot</text>
</a>
</g>
</g>
<!-- Node14&#45;&gt;Node15 -->
<g id="edge1" class="edge"><title>Node14&#45;&gt;Node15</title>
<path fill="none" stroke="midnightblue" d="M78.8987,-219.29C91.8067,-255.09 124.476,-331.729 179,-371 190.515,-379.294 205.165,-384.007 218.743,-386.672"/>
<polygon fill="midnightblue" stroke="midnightblue" points="82.1125,-217.876 75.5249,-209.578 75.5001,-220.173 82.1125,-217.876"/>
</g>
<!-- Node16 -->
<g id="node3" class="node"><title>Node16</title>
<g id="a_node3"><a xlink:href="main_8cpp.html#ad2b1b5902c7452f46fb581ba1d8cb9d3" target="_top" xlink:title="testSingleVariableMinimization">
<polygon fill="none" stroke="black" points="185,-342.5 185,-361.5 334,-361.5 334,-342.5 185,-342.5"/>
<text text-anchor="middle" x="259.5" y="-349.5" font-family="Helvetica,sans-Serif" font-size="10.00">testSingleVariableMinimization</text>
</a>
</g>
</g>
<!-- Node14&#45;&gt;Node16 -->
<g id="edge2" class="edge"><title>Node14&#45;&gt;Node16</title>
<path fill="none" stroke="midnightblue" d="M82.0549,-218.597C98.0217,-247.731 132.965,-303.81 179,-333 185.112,-336.876 191.944,-339.961 198.967,-342.417"/>
<polygon fill="midnightblue" stroke="midnightblue" points="85.0019,-216.685 77.2115,-209.504 78.8237,-219.976 85.0019,-216.685"/>
</g>
<!-- Node17 -->
<g id="node4" class="node"><title>Node17</title>
<g id="a_node4"><a xlink:href="main_8cpp.html#a1347d10de51ac5ab2e3cac88e1ef77f3" target="_top" xlink:title="testDoubleVariableMinimization">
<polygon fill="none" stroke="black" points="183,-304.5 183,-323.5 336,-323.5 336,-304.5 183,-304.5"/>
<text text-anchor="middle" x="259.5" y="-311.5" font-family="Helvetica,sans-Serif" font-size="10.00">testDoubleVariableMinimization</text>
</a>
</g>
</g>
<!-- Node14&#45;&gt;Node17 -->
<g id="edge3" class="edge"><title>Node14&#45;&gt;Node17</title>
<path fill="none" stroke="midnightblue" d="M86.8352,-217.212C105.716,-238.731 141.003,-275.146 179,-295 186.421,-298.877 194.644,-301.977 202.905,-304.451"/>
<polygon fill="midnightblue" stroke="midnightblue" points="89.3858,-214.809 80.2154,-209.503 84.0752,-219.37 89.3858,-214.809"/>
</g>
<!-- Node18 -->
<g id="node5" class="node"><title>Node18</title>
<g id="a_node5"><a xlink:href="main_8cpp.html#a17be32f46e8ed8dbbe9a168cbcbbd375" target="_top" xlink:title="testSingleIntegral">
<polygon fill="none" stroke="black" points="213.5,-266.5 213.5,-285.5 305.5,-285.5 305.5,-266.5 213.5,-266.5"/>
<text text-anchor="middle" x="259.5" y="-273.5" font-family="Helvetica,sans-Serif" font-size="10.00">testSingleIntegral</text>
</a>
</g>
</g>
<!-- Node14&#45;&gt;Node18 -->
<g id="edge4" class="edge"><title>Node14&#45;&gt;Node18</title>
<path fill="none" stroke="midnightblue" d="M96.0119,-214.863C117.057,-227.604 149.114,-245.648 179,-257 189.878,-261.132 201.944,-264.566 213.321,-267.326"/>
<polygon fill="midnightblue" stroke="midnightblue" points="97.7877,-211.847 87.435,-209.594 94.1235,-217.811 97.7877,-211.847"/>
</g>
<!-- Node19 -->
<g id="node6" class="node"><title>Node19</title>
<g id="a_node6"><a xlink:href="main_8cpp.html#aa08c7ea573265b34dee0c10024829973" target="_top" xlink:title="testToroid">
<polygon fill="none" stroke="black" points="230,-228.5 230,-247.5 289,-247.5 289,-228.5 230,-228.5"/>
<text text-anchor="middle" x="259.5" y="-235.5" font-family="Helvetica,sans-Serif" font-size="10.00">testToroid</text>
</a>
</g>
</g>
<!-- Node14&#45;&gt;Node19 -->
<g id="edge5" class="edge"><title>Node14&#45;&gt;Node19</title>
<path fill="none" stroke="midnightblue" d="M129.492,-211.643C162.72,-218.432 203.201,-226.702 229.851,-232.147"/>
<polygon fill="midnightblue" stroke="midnightblue" points="129.934,-208.162 119.436,-209.589 128.533,-215.02 129.934,-208.162"/>
</g>
<!-- Node20 -->
<g id="node7" class="node"><title>Node20</title>
<g id="a_node7"><a xlink:href="main_8cpp.html#ae66f6b31b5ad750f1fe042a706a4e3d4" target="_top" xlink:title="main">
<polygon fill="none" stroke="black" points="376,-209.5 376,-228.5 414,-228.5 414,-209.5 376,-209.5"/>
<text text-anchor="middle" x="395" y="-216.5" font-family="Helvetica,sans-Serif" font-size="10.00">main</text>
</a>
</g>
</g>
<!-- Node14&#45;&gt;Node20 -->
<g id="edge7" class="edge"><title>Node14&#45;&gt;Node20</title>
<path fill="none" stroke="midnightblue" d="M153.393,-204.781C228.185,-209.201 333.895,-215.448 375.835,-217.927"/>
<polygon fill="midnightblue" stroke="midnightblue" points="153.244,-201.266 143.055,-204.17 152.831,-208.254 153.244,-201.266"/>
</g>
<!-- Node21 -->
<g id="node8" class="node"><title>Node21</title>
<g id="a_node8"><a xlink:href="classOptimizer.html#a811cf938081629ba6c34ee30d2438137" target="_top" xlink:title="Two&#45;dimensional function minimization procedure via the gradient descent method. ">
<polygon fill="none" stroke="black" points="207.5,-152.5 207.5,-171.5 311.5,-171.5 311.5,-152.5 207.5,-152.5"/>
<text text-anchor="middle" x="259.5" y="-159.5" font-family="Helvetica,sans-Serif" font-size="10.00">Optimizer::minimize</text>
</a>
</g>
</g>
<!-- Node14&#45;&gt;Node21 -->
<g id="edge8" class="edge"><title>Node14&#45;&gt;Node21</title>
<path fill="none" stroke="midnightblue" d="M129.325,-188.39C155.779,-182.986 186.858,-176.636 211.902,-171.52"/>
<polygon fill="midnightblue" stroke="midnightblue" points="128.533,-184.98 119.436,-190.411 129.934,-191.838 128.533,-184.98"/>
</g>
<!-- Node22 -->
<g id="node9" class="node"><title>Node22</title>
<g id="a_node9"><a xlink:href="classOptimizer.html#a541dc375f9550e9266b3fc41ea7250f4" target="_top" xlink:title="Numerically approximates the integral of a function. ">
<polygon fill="none" stroke="black" points="208.5,-114.5 208.5,-133.5 310.5,-133.5 310.5,-114.5 208.5,-114.5"/>
<text text-anchor="middle" x="259.5" y="-121.5" font-family="Helvetica,sans-Serif" font-size="10.00">Optimizer::integrate</text>
</a>
</g>
</g>
<!-- Node14&#45;&gt;Node22 -->
<g id="edge9" class="edge"><title>Node14&#45;&gt;Node22</title>
<path fill="none" stroke="midnightblue" d="M96.0119,-185.137C117.057,-172.396 149.114,-154.352 179,-143 188.817,-139.271 199.601,-136.11 209.973,-133.501"/>
<polygon fill="midnightblue" stroke="midnightblue" points="94.1235,-182.189 87.435,-190.406 97.7877,-188.153 94.1235,-182.189"/>
</g>
<!-- Node23 -->
<g id="node10" class="node"><title>Node23</title>
<g id="a_node10"><a xlink:href="classOptimizer.html#a17bdb6fc4aa978eea62a3f1ec4216cdc" target="_top" xlink:title="Adaptive quadrature method. ">
<polygon fill="none" stroke="black" points="186,-76.5 186,-95.5 333,-95.5 333,-76.5 186,-76.5"/>
<text text-anchor="middle" x="259.5" y="-83.5" font-family="Helvetica,sans-Serif" font-size="10.00">Optimizer::adaptiveIntegration</text>
</a>
</g>
</g>
<!-- Node14&#45;&gt;Node23 -->
<g id="edge10" class="edge"><title>Node14&#45;&gt;Node23</title>
<path fill="none" stroke="midnightblue" d="M86.8352,-182.788C105.716,-161.269 141.003,-124.854 179,-105 186.421,-101.123 194.644,-98.0233 202.905,-95.5493"/>
<polygon fill="midnightblue" stroke="midnightblue" points="84.0752,-180.63 80.2154,-190.497 89.3858,-185.191 84.0752,-180.63"/>
</g>
<!-- Node24 -->
<g id="node11" class="node"><title>Node24</title>
<g id="a_node11"><a xlink:href="classOptimizer.html#a44bb366370b96cf611eec59a8a13a3fa" target="_top" xlink:title="Optimizer::monteCarloIntegration">
<polygon fill="none" stroke="black" points="179,-38.5 179,-57.5 340,-57.5 340,-38.5 179,-38.5"/>
<text text-anchor="middle" x="259.5" y="-45.5" font-family="Helvetica,sans-Serif" font-size="10.00">Optimizer::monteCarloIntegration</text>
</a>
</g>
</g>
<!-- Node14&#45;&gt;Node24 -->
<g id="edge11" class="edge"><title>Node14&#45;&gt;Node24</title>
<path fill="none" stroke="midnightblue" d="M82.0549,-181.403C98.0217,-152.269 132.965,-96.1897 179,-67 185.112,-63.1245 191.944,-60.039 198.967,-57.5826"/>
<polygon fill="midnightblue" stroke="midnightblue" points="78.8237,-180.024 77.2115,-190.496 85.0019,-183.315 78.8237,-180.024"/>
</g>
<!-- Node25 -->
<g id="node12" class="node"><title>Node25</title>
<g id="a_node12"><a xlink:href="classOptimizer.html#a981e7e969e70346bfe09ab0acb25206f" target="_top" xlink:title="Optimizer::monteCarloVolume">
<polygon fill="none" stroke="black" points="186,-0.5 186,-19.5 333,-19.5 333,-0.5 186,-0.5"/>
<text text-anchor="middle" x="259.5" y="-7.5" font-family="Helvetica,sans-Serif" font-size="10.00">Optimizer::monteCarloVolume</text>
</a>
</g>
</g>
<!-- Node14&#45;&gt;Node25 -->
<g id="edge12" class="edge"><title>Node14&#45;&gt;Node25</title>
<path fill="none" stroke="midnightblue" d="M78.8987,-180.71C91.8067,-144.91 124.476,-68.271 179,-29 184.412,-25.102 190.517,-21.9949 196.877,-19.5196"/>
<polygon fill="midnightblue" stroke="midnightblue" points="75.5001,-179.827 75.5249,-190.422 82.1125,-182.124 75.5001,-179.827"/>
</g>
<!-- Node19&#45;&gt;Node20 -->
<g id="edge6" class="edge"><title>Node19&#45;&gt;Node20</title>
<path fill="none" stroke="midnightblue" d="M299.127,-232.502C324.311,-228.918 356.031,-224.404 375.662,-221.61"/>
<polygon fill="midnightblue" stroke="midnightblue" points="298.546,-229.05 289.139,-233.924 299.533,-235.98 298.546,-229.05"/>
</g>
</g>
</svg>
