<?xml version="1.0" encoding="UTF-8" standalone="no"?>
<!DOCTYPE svg PUBLIC "-//W3C//DTD SVG 1.1//EN"
 "http://www.w3.org/Graphics/SVG/1.1/DTD/svg11.dtd">
<!-- Generated by graphviz version 2.38.0 (20140413.2041)
 -->
<!-- Title: Point3D Pages: 1 -->
<svg width="75pt" height="281pt"
 viewBox="0.00 0.00 75.00 281.00" xmlns="http://www.w3.org/2000/svg" xmlns:xlink="http://www.w3.org/1999/xlink">
<g id="graph0" class="graph" transform="scale(1 1) rotate(0) translate(4 277)">
<title>Point3D</title>
<!-- Node1 -->
<g id="node1" class="node"><title>Node1</title>
<polygon fill="#bfbfbf" stroke="black" points="0,-0.5 0,-145.5 67,-145.5 67,-0.5 0,-0.5"/>
<text text-anchor="middle" x="33.5" y="-133.5" font-family="Helvetica,sans-Serif" font-size="10.00">Point3D</text>
<polyline fill="none" stroke="black" points="0,-126.5 67,-126.5 "/>
<text text-anchor="middle" x="33.5" y="-114.5" font-family="Helvetica,sans-Serif" font-size="10.00"> </text>
<polyline fill="none" stroke="black" points="0,-107.5 67,-107.5 "/>
<text text-anchor="start" x="8" y="-95.5" font-family="Helvetica,sans-Serif" font-size="10.00">+ Point3D()</text>
<text text-anchor="start" x="8" y="-84.5" font-family="Helvetica,sans-Serif" font-size="10.00">+ Point3D()</text>
<text text-anchor="start" x="8" y="-73.5" font-family="Helvetica,sans-Serif" font-size="10.00">+ getX()</text>
<text text-anchor="start" x="8" y="-62.5" font-family="Helvetica,sans-Serif" font-size="10.00">+ setX()</text>
<text text-anchor="start" x="8" y="-51.5" font-family="Helvetica,sans-Serif" font-size="10.00">+ getY()</text>
<text text-anchor="start" x="8" y="-40.5" font-family="Helvetica,sans-Serif" font-size="10.00">+ setY()</text>
<text text-anchor="start" x="8" y="-29.5" font-family="Helvetica,sans-Serif" font-size="10.00">+ getZ()</text>
<text text-anchor="start" x="8" y="-18.5" font-family="Helvetica,sans-Serif" font-size="10.00">+ setZ()</text>
<text text-anchor="start" x="8" y="-7.5" font-family="Helvetica,sans-Serif" font-size="10.00">+ toString()</text>
</g>
<!-- Node2 -->
<g id="node2" class="node"><title>Node2</title>
<polygon fill="none" stroke="#bfbfbf" points="11,-215.5 11,-272.5 56,-272.5 56,-215.5 11,-215.5"/>
<text text-anchor="middle" x="33.5" y="-260.5" font-family="Helvetica,sans-Serif" font-size="10.00">double</text>
<polyline fill="none" stroke="#bfbfbf" points="11,-253.5 56,-253.5 "/>
<text text-anchor="middle" x="33.5" y="-241.5" font-family="Helvetica,sans-Serif" font-size="10.00"> </text>
<polyline fill="none" stroke="#bfbfbf" points="11,-234.5 56,-234.5 "/>
<text text-anchor="middle" x="33.5" y="-222.5" font-family="Helvetica,sans-Serif" font-size="10.00"> </text>
</g>
<!-- Node2&#45;&gt;Node1 -->
<g id="edge1" class="edge"><title>Node2&#45;&gt;Node1</title>
<path fill="none" stroke="#404040" d="M33.5,-215.471C33.5,-199.599 33.5,-178.708 33.5,-157.868"/>
<polygon fill="none" stroke="#404040" points="33.5001,-157.642 29.5,-151.642 33.5,-145.642 37.5,-151.642 33.5001,-157.642"/>
<text text-anchor="middle" x="39" y="-189" font-family="Helvetica,sans-Serif" font-size="10.00"> &#45;x</text>
<text text-anchor="middle" x="39" y="-178" font-family="Helvetica,sans-Serif" font-size="10.00">&#45;y</text>
<text text-anchor="middle" x="39" y="-167" font-family="Helvetica,sans-Serif" font-size="10.00">&#45;z</text>
</g>
</g>
</svg>
