<?xml version="1.0" encoding="UTF-8" standalone="no"?>
<!DOCTYPE svg PUBLIC "-//W3C//DTD SVG 1.1//EN"
 "http://www.w3.org/Graphics/SVG/1.1/DTD/svg11.dtd">
<!-- Generated by graphviz version 2.38.0 (20140413.2041)
 -->
<!-- Title: VolumousObject Pages: 1 -->
<svg width="168pt" height="485pt"
 viewBox="0.00 0.00 167.50 485.00" xmlns="http://www.w3.org/2000/svg" xmlns:xlink="http://www.w3.org/1999/xlink">
<g id="graph0" class="graph" transform="scale(1 1) rotate(0) translate(4 481)">
<title>VolumousObject</title>
<!-- Node1 -->
<g id="node1" class="node"><title>Node1</title>
<polygon fill="#bfbfbf" stroke="black" points="0,-0.5 0,-156.5 109,-156.5 109,-0.5 0,-0.5"/>
<text text-anchor="middle" x="54.5" y="-144.5" font-family="Helvetica,sans-Serif" font-size="10.00">VolumousObject</text>
<polyline fill="none" stroke="black" points="0,-137.5 109,-137.5 "/>
<text text-anchor="middle" x="54.5" y="-125.5" font-family="Helvetica,sans-Serif" font-size="10.00"> </text>
<polyline fill="none" stroke="black" points="0,-118.5 109,-118.5 "/>
<text text-anchor="start" x="8" y="-106.5" font-family="Helvetica,sans-Serif" font-size="10.00">+ VolumousObject()</text>
<text text-anchor="start" x="8" y="-95.5" font-family="Helvetica,sans-Serif" font-size="10.00">+ getVolume()</text>
<text text-anchor="start" x="8" y="-84.5" font-family="Helvetica,sans-Serif" font-size="10.00">+ setVolume()</text>
<text text-anchor="start" x="8" y="-73.5" font-family="Helvetica,sans-Serif" font-size="10.00">+ getWeight()</text>
<text text-anchor="start" x="8" y="-62.5" font-family="Helvetica,sans-Serif" font-size="10.00">+ setWeight()</text>
<text text-anchor="start" x="8" y="-51.5" font-family="Helvetica,sans-Serif" font-size="10.00">+ getCenterOfMass()</text>
<text text-anchor="start" x="8" y="-40.5" font-family="Helvetica,sans-Serif" font-size="10.00">+ setCenterOfMass()</text>
<text text-anchor="start" x="8" y="-29.5" font-family="Helvetica,sans-Serif" font-size="10.00">+ setError()</text>
<text text-anchor="start" x="8" y="-18.5" font-family="Helvetica,sans-Serif" font-size="10.00">+ getError()</text>
<text text-anchor="start" x="8" y="-7.5" font-family="Helvetica,sans-Serif" font-size="10.00">+ toString()</text>
</g>
<!-- Node2 -->
<g id="node2" class="node"><title>Node2</title>
<polygon fill="none" stroke="#bfbfbf" points="46,-419.5 46,-476.5 91,-476.5 91,-419.5 46,-419.5"/>
<text text-anchor="middle" x="68.5" y="-464.5" font-family="Helvetica,sans-Serif" font-size="10.00">double</text>
<polyline fill="none" stroke="#bfbfbf" points="46,-457.5 91,-457.5 "/>
<text text-anchor="middle" x="68.5" y="-445.5" font-family="Helvetica,sans-Serif" font-size="10.00"> </text>
<polyline fill="none" stroke="#bfbfbf" points="46,-438.5 91,-438.5 "/>
<text text-anchor="middle" x="68.5" y="-426.5" font-family="Helvetica,sans-Serif" font-size="10.00"> </text>
</g>
<!-- Node2&#45;&gt;Node1 -->
<g id="edge1" class="edge"><title>Node2&#45;&gt;Node1</title>
<path fill="none" stroke="#404040" d="M60.8406,-419.242C55.9347,-399.983 50.03,-373.643 47.5,-350 41.0543,-289.764 42.8786,-221.575 46.2767,-168.731"/>
<polygon fill="none" stroke="#404040" points="46.2825,-168.645 42.6986,-162.387 47.0963,-156.672 50.6802,-162.93 46.2825,-168.645"/>
<text text-anchor="middle" x="65" y="-285.5" font-family="Helvetica,sans-Serif" font-size="10.00"> &#45;error</text>
<text text-anchor="middle" x="65" y="-274.5" font-family="Helvetica,sans-Serif" font-size="10.00">&#45;weight</text>
<text text-anchor="middle" x="65" y="-263.5" font-family="Helvetica,sans-Serif" font-size="10.00">&#45;volume</text>
</g>
<!-- Node3 -->
<g id="node3" class="node"><title>Node3</title>
<g id="a_node3"><a xlink:href="classPoint3D.html" target="_top" xlink:title="{Point3D\n||+ Point3D()\l+ Point3D()\l+ getX()\l+ setX()\l+ getY()\l+ setY()\l+ getZ()\l+ setZ()\l+ toString()\l}">
<polygon fill="none" stroke="black" points="92,-204.5 92,-349.5 159,-349.5 159,-204.5 92,-204.5"/>
<text text-anchor="middle" x="125.5" y="-337.5" font-family="Helvetica,sans-Serif" font-size="10.00">Point3D</text>
<polyline fill="none" stroke="black" points="92,-330.5 159,-330.5 "/>
<text text-anchor="middle" x="125.5" y="-318.5" font-family="Helvetica,sans-Serif" font-size="10.00"> </text>
<polyline fill="none" stroke="black" points="92,-311.5 159,-311.5 "/>
<text text-anchor="start" x="100" y="-299.5" font-family="Helvetica,sans-Serif" font-size="10.00">+ Point3D()</text>
<text text-anchor="start" x="100" y="-288.5" font-family="Helvetica,sans-Serif" font-size="10.00">+ Point3D()</text>
<text text-anchor="start" x="100" y="-277.5" font-family="Helvetica,sans-Serif" font-size="10.00">+ getX()</text>
<text text-anchor="start" x="100" y="-266.5" font-family="Helvetica,sans-Serif" font-size="10.00">+ setX()</text>
<text text-anchor="start" x="100" y="-255.5" font-family="Helvetica,sans-Serif" font-size="10.00">+ getY()</text>
<text text-anchor="start" x="100" y="-244.5" font-family="Helvetica,sans-Serif" font-size="10.00">+ setY()</text>
<text text-anchor="start" x="100" y="-233.5" font-family="Helvetica,sans-Serif" font-size="10.00">+ getZ()</text>
<text text-anchor="start" x="100" y="-222.5" font-family="Helvetica,sans-Serif" font-size="10.00">+ setZ()</text>
<text text-anchor="start" x="100" y="-211.5" font-family="Helvetica,sans-Serif" font-size="10.00">+ toString()</text>
</a>
</g>
</g>
<!-- Node2&#45;&gt;Node3 -->
<g id="edge3" class="edge"><title>Node2&#45;&gt;Node3</title>
<path fill="none" stroke="#404040" d="M77.7849,-419.471C83.1882,-403.451 90.3162,-382.317 97.4103,-361.283"/>
<polygon fill="none" stroke="#404040" points="97.5017,-361.012 95.6291,-354.049 101.337,-349.642 103.21,-356.605 97.5017,-361.012"/>
<text text-anchor="middle" x="99" y="-393" font-family="Helvetica,sans-Serif" font-size="10.00"> &#45;x</text>
<text text-anchor="middle" x="99" y="-382" font-family="Helvetica,sans-Serif" font-size="10.00">&#45;y</text>
<text text-anchor="middle" x="99" y="-371" font-family="Helvetica,sans-Serif" font-size="10.00">&#45;z</text>
</g>
<!-- Node3&#45;&gt;Node1 -->
<g id="edge2" class="edge"><title>Node3&#45;&gt;Node1</title>
<path fill="none" stroke="#404040" d="M99.566,-204.225C95.3332,-192.51 90.9044,-180.253 86.5457,-168.19"/>
<polygon fill="none" stroke="#404040" points="86.4748,-167.993 80.6739,-163.71 82.3969,-156.708 88.1978,-160.991 86.4748,-167.993"/>
<text text-anchor="middle" x="125.5" y="-178" font-family="Helvetica,sans-Serif" font-size="10.00"> &#45;centerOfMass</text>
</g>
</g>
</svg>
