<?xml version="1.0" encoding="UTF-8" standalone="no"?>
<!DOCTYPE svg PUBLIC "-//W3C//DTD SVG 1.1//EN"
 "http://www.w3.org/Graphics/SVG/1.1/DTD/svg11.dtd">
<!-- Generated by graphviz version 2.38.0 (20140413.2041)
 -->
<!-- Title: Optimizer Pages: 1 -->
<svg width="191pt" height="259pt"
 viewBox="0.00 0.00 190.50 259.00" xmlns="http://www.w3.org/2000/svg" xmlns:xlink="http://www.w3.org/1999/xlink">
<g id="graph0" class="graph" transform="scale(1 1) rotate(0) translate(4 255)">
<title>Optimizer</title>
<!-- Node1 -->
<g id="node1" class="node"><title>Node1</title>
<polygon fill="#bfbfbf" stroke="black" points="32.5,-0.5 32.5,-145.5 166.5,-145.5 166.5,-0.5 32.5,-0.5"/>
<text text-anchor="middle" x="99.5" y="-133.5" font-family="Helvetica,sans-Serif" font-size="10.00">Optimizer</text>
<polyline fill="none" stroke="black" points="32.5,-126.5 166.5,-126.5 "/>
<text text-anchor="middle" x="99.5" y="-114.5" font-family="Helvetica,sans-Serif" font-size="10.00"> </text>
<polyline fill="none" stroke="black" points="32.5,-107.5 166.5,-107.5 "/>
<text text-anchor="start" x="40.5" y="-95.5" font-family="Helvetica,sans-Serif" font-size="10.00">+ getIterations()</text>
<text text-anchor="start" x="40.5" y="-84.5" font-family="Helvetica,sans-Serif" font-size="10.00">+ getError()</text>
<text text-anchor="start" x="40.5" y="-73.5" font-family="Helvetica,sans-Serif" font-size="10.00">+ getEndReason()</text>
<text text-anchor="start" x="40.5" y="-62.5" font-family="Helvetica,sans-Serif" font-size="10.00">+ findRoot()</text>
<text text-anchor="start" x="40.5" y="-51.5" font-family="Helvetica,sans-Serif" font-size="10.00">+ minimize()</text>
<text text-anchor="start" x="40.5" y="-40.5" font-family="Helvetica,sans-Serif" font-size="10.00">+ minimize()</text>
<text text-anchor="start" x="40.5" y="-29.5" font-family="Helvetica,sans-Serif" font-size="10.00">+ integrate()</text>
<text text-anchor="start" x="40.5" y="-18.5" font-family="Helvetica,sans-Serif" font-size="10.00">+ adaptiveIntegration()</text>
<text text-anchor="start" x="40.5" y="-7.5" font-family="Helvetica,sans-Serif" font-size="10.00">&#45; innerAdaptiveIntegration()</text>
</g>
<!-- Node2 -->
<g id="node2" class="node"><title>Node2</title>
<polygon fill="none" stroke="#bfbfbf" points="0,-193.5 0,-250.5 41,-250.5 41,-193.5 0,-193.5"/>
<text text-anchor="middle" x="20.5" y="-238.5" font-family="Helvetica,sans-Serif" font-size="10.00">string</text>
<polyline fill="none" stroke="#bfbfbf" points="0,-231.5 41,-231.5 "/>
<text text-anchor="middle" x="20.5" y="-219.5" font-family="Helvetica,sans-Serif" font-size="10.00"> </text>
<polyline fill="none" stroke="#bfbfbf" points="0,-212.5 41,-212.5 "/>
<text text-anchor="middle" x="20.5" y="-200.5" font-family="Helvetica,sans-Serif" font-size="10.00"> </text>
</g>
<!-- Node2&#45;&gt;Node1 -->
<g id="edge1" class="edge"><title>Node2&#45;&gt;Node1</title>
<path fill="none" stroke="#404040" d="M28.0539,-193.447C31.0935,-183.903 34.9629,-173.277 39.5,-164 40.7531,-161.438 42.0686,-158.863 43.4348,-156.286"/>
<polygon fill="none" stroke="#404040" points="43.4834,-156.199 42.8975,-149.011 49.3066,-145.706 49.8925,-152.893 43.4834,-156.199"/>
<text text-anchor="middle" x="67.5" y="-167" font-family="Helvetica,sans-Serif" font-size="10.00"> &#45;endReason</text>
</g>
<!-- Node3 -->
<g id="node3" class="node"><title>Node3</title>
<polygon fill="none" stroke="#bfbfbf" points="77,-193.5 77,-250.5 122,-250.5 122,-193.5 77,-193.5"/>
<text text-anchor="middle" x="99.5" y="-238.5" font-family="Helvetica,sans-Serif" font-size="10.00">double</text>
<polyline fill="none" stroke="#bfbfbf" points="77,-231.5 122,-231.5 "/>
<text text-anchor="middle" x="99.5" y="-219.5" font-family="Helvetica,sans-Serif" font-size="10.00"> </text>
<polyline fill="none" stroke="#bfbfbf" points="77,-212.5 122,-212.5 "/>
<text text-anchor="middle" x="99.5" y="-200.5" font-family="Helvetica,sans-Serif" font-size="10.00"> </text>
</g>
<!-- Node3&#45;&gt;Node1 -->
<g id="edge2" class="edge"><title>Node3&#45;&gt;Node1</title>
<path fill="none" stroke="#404040" d="M99.5,-193.35C99.5,-183.014 99.5,-170.664 99.5,-157.886"/>
<polygon fill="none" stroke="#404040" points="99.5001,-157.555 95.5,-151.556 99.5,-145.555 103.5,-151.555 99.5001,-157.555"/>
<text text-anchor="middle" x="112.5" y="-167" font-family="Helvetica,sans-Serif" font-size="10.00"> &#45;error</text>
</g>
<!-- Node4 -->
<g id="node4" class="node"><title>Node4</title>
<polygon fill="none" stroke="#bfbfbf" points="140,-193.5 140,-250.5 169,-250.5 169,-193.5 140,-193.5"/>
<text text-anchor="middle" x="154.5" y="-238.5" font-family="Helvetica,sans-Serif" font-size="10.00">int</text>
<polyline fill="none" stroke="#bfbfbf" points="140,-231.5 169,-231.5 "/>
<text text-anchor="middle" x="154.5" y="-219.5" font-family="Helvetica,sans-Serif" font-size="10.00"> </text>
<polyline fill="none" stroke="#bfbfbf" points="140,-212.5 169,-212.5 "/>
<text text-anchor="middle" x="154.5" y="-200.5" font-family="Helvetica,sans-Serif" font-size="10.00"> </text>
</g>
<!-- Node4&#45;&gt;Node1 -->
<g id="edge3" class="edge"><title>Node4&#45;&gt;Node1</title>
<path fill="none" stroke="#404040" d="M144.155,-193.35C140.208,-182.801 135.476,-170.153 130.59,-157.095"/>
<polygon fill="none" stroke="#404040" points="130.478,-156.795 124.629,-152.577 126.272,-145.555 132.121,-149.773 130.478,-156.795"/>
<text text-anchor="middle" x="159.5" y="-167" font-family="Helvetica,sans-Serif" font-size="10.00"> &#45;iterations</text>
</g>
</g>
</svg>
