<?xml version="1.0" encoding="UTF-8" standalone="no"?>
<!DOCTYPE svg PUBLIC "-//W3C//DTD SVG 1.1//EN"
 "http://www.w3.org/Graphics/SVG/1.1/DTD/svg11.dtd">
<!-- Generated by graphviz version 2.38.0 (20140413.2041)
 -->
<!-- Title: include/FunctionUtils.hpp Pages: 1 -->
<svg width="169pt" height="140pt"
 viewBox="0.00 0.00 168.50 140.00" xmlns="http://www.w3.org/2000/svg" xmlns:xlink="http://www.w3.org/1999/xlink">
<g id="graph0" class="graph" transform="scale(1 1) rotate(0) translate(4 136)">
<title>include/FunctionUtils.hpp</title>
<!-- Node4 -->
<g id="node1" class="node"><title>Node4</title>
<polygon fill="#bfbfbf" stroke="black" points="0,-112.5 0,-131.5 127,-131.5 127,-112.5 0,-112.5"/>
<text text-anchor="middle" x="63.5" y="-119.5" font-family="Helvetica,sans-Serif" font-size="10.00">include/FunctionUtils.hpp</text>
</g>
<!-- Node5 -->
<g id="node2" class="node"><title>Node5</title>
<g id="a_node2"><a xlink:href="main_8cpp.html" target="_top" xlink:title="test/main.cpp">
<polygon fill="none" stroke="black" points="25.5,-0.5 25.5,-19.5 101.5,-19.5 101.5,-0.5 25.5,-0.5"/>
<text text-anchor="middle" x="63.5" y="-7.5" font-family="Helvetica,sans-Serif" font-size="10.00">test/main.cpp</text>
</a>
</g>
</g>
<!-- Node4&#45;&gt;Node5 -->
<g id="edge1" class="edge"><title>Node4&#45;&gt;Node5</title>
<path fill="none" stroke="midnightblue" d="M52.736,-103.685C48.3215,-95.5948 43.7297,-85.6373 41.5,-76 36.72,-55.3396 49.2233,-31.9852 57.2862,-19.6716"/>
<polygon fill="midnightblue" stroke="midnightblue" points="49.8028,-105.603 57.8622,-112.481 55.8506,-102.078 49.8028,-105.603"/>
</g>
<!-- Node6 -->
<g id="node3" class="node"><title>Node6</title>
<g id="a_node3"><a xlink:href="Optimizer_8hpp.html" target="_top" xlink:title="include/Optimizer.hpp">
<polygon fill="none" stroke="black" points="50.5,-56.5 50.5,-75.5 160.5,-75.5 160.5,-56.5 50.5,-56.5"/>
<text text-anchor="middle" x="105.5" y="-63.5" font-family="Helvetica,sans-Serif" font-size="10.00">include/Optimizer.hpp</text>
</a>
</g>
</g>
<!-- Node4&#45;&gt;Node6 -->
<g id="edge2" class="edge"><title>Node4&#45;&gt;Node6</title>
<path fill="none" stroke="midnightblue" d="M76.6102,-104.144C83.9278,-94.7357 92.7409,-83.4046 98.6936,-75.7511"/>
<polygon fill="midnightblue" stroke="midnightblue" points="73.8122,-102.041 70.4354,-112.083 79.3376,-106.338 73.8122,-102.041"/>
</g>
<!-- Node6&#45;&gt;Node5 -->
<g id="edge3" class="edge"><title>Node6&#45;&gt;Node5</title>
<path fill="none" stroke="midnightblue" d="M92.3898,-48.144C85.0722,-38.7357 76.2591,-27.4046 70.3064,-19.7511"/>
<polygon fill="midnightblue" stroke="midnightblue" points="89.6624,-50.3383 98.5646,-56.083 95.1878,-46.0406 89.6624,-50.3383"/>
</g>
</g>
</svg>
