<?xml version="1.0" encoding="UTF-8" standalone="no"?>
<!DOCTYPE svg PUBLIC "-//W3C//DTD SVG 1.1//EN"
 "http://www.w3.org/Graphics/SVG/1.1/DTD/svg11.dtd">
<!-- Generated by graphviz version 2.38.0 (20140413.2041)
 -->
<!-- Title: testSingleVariableMinimization Pages: 1 -->
<svg width="336pt" height="46pt"
 viewBox="0.00 0.00 336.00 46.00" xmlns="http://www.w3.org/2000/svg" xmlns:xlink="http://www.w3.org/1999/xlink">
<g id="graph0" class="graph" transform="scale(1 1) rotate(0) translate(4 42)">
<title>testSingleVariableMinimization</title>
<!-- Node43 -->
<g id="node1" class="node"><title>Node43</title>
<polygon fill="#bfbfbf" stroke="black" points="0,-0.5 0,-19.5 149,-19.5 149,-0.5 0,-0.5"/>
<text text-anchor="middle" x="74.5" y="-7.5" font-family="Helvetica,sans-Serif" font-size="10.00">testSingleVariableMinimization</text>
</g>
<!-- Node44 -->
<g id="node2" class="node"><title>Node44</title>
<g id="a_node2"><a xlink:href="classOptimizer.html#aa626db2b39521740bf10c20aec3c57ac" target="_top" xlink:title="Optimizer::getExecutionTime">
<polygon fill="none" stroke="black" points="185,-0.5 185,-19.5 328,-19.5 328,-0.5 185,-0.5"/>
<text text-anchor="middle" x="256.5" y="-7.5" font-family="Helvetica,sans-Serif" font-size="10.00">Optimizer::getExecutionTime</text>
</a>
</g>
</g>
<!-- Node43&#45;&gt;Node44 -->
<g id="edge1" class="edge"><title>Node43&#45;&gt;Node44</title>
<path fill="none" stroke="midnightblue" d="M149.232,-10C157.584,-10 166.129,-10 174.567,-10"/>
<polygon fill="midnightblue" stroke="midnightblue" points="174.786,-13.5001 184.786,-10 174.786,-6.5001 174.786,-13.5001"/>
</g>
<!-- Node44&#45;&gt;Node44 -->
<g id="edge2" class="edge"><title>Node44&#45;&gt;Node44</title>
<path fill="none" stroke="midnightblue" d="M228.449,-19.7571C214.802,-28.5653 224.152,-38 256.5,-38 278.739,-38 290.108,-33.5406 290.608,-27.8913"/>
<polygon fill="midnightblue" stroke="midnightblue" points="293.331,-25.6878 284.551,-19.7571 287.716,-29.8682 293.331,-25.6878"/>
</g>
</g>
</svg>
