<?xml version="1.0" encoding="UTF-8" standalone="no"?>
<!DOCTYPE svg PUBLIC "-//W3C//DTD SVG 1.1//EN"
 "http://www.w3.org/Graphics/SVG/1.1/DTD/svg11.dtd">
<!-- Generated by graphviz version 2.38.0 (20140413.2041)
 -->
<!-- Title: testSingleIntegral Pages: 1 -->
<svg width="283pt" height="46pt"
 viewBox="0.00 0.00 283.00 46.00" xmlns="http://www.w3.org/2000/svg" xmlns:xlink="http://www.w3.org/1999/xlink">
<g id="graph0" class="graph" transform="scale(1 1) rotate(0) translate(4 42)">
<title>testSingleIntegral</title>
<!-- Node35 -->
<g id="node1" class="node"><title>Node35</title>
<polygon fill="#bfbfbf" stroke="black" points="0,-0.5 0,-19.5 92,-19.5 92,-0.5 0,-0.5"/>
<text text-anchor="middle" x="46" y="-7.5" font-family="Helvetica,sans-Serif" font-size="10.00">testSingleIntegral</text>
</g>
<!-- Node36 -->
<g id="node2" class="node"><title>Node36</title>
<g id="a_node2"><a xlink:href="classOptimizer.html#a17bdb6fc4aa978eea62a3f1ec4216cdc" target="_top" xlink:title="Adaptive quadrature method. ">
<polygon fill="none" stroke="black" points="128,-0.5 128,-19.5 275,-19.5 275,-0.5 128,-0.5"/>
<text text-anchor="middle" x="201.5" y="-7.5" font-family="Helvetica,sans-Serif" font-size="10.00">Optimizer::adaptiveIntegration</text>
</a>
</g>
</g>
<!-- Node35&#45;&gt;Node36 -->
<g id="edge1" class="edge"><title>Node35&#45;&gt;Node36</title>
<path fill="none" stroke="midnightblue" d="M92.2248,-10C100.297,-10 108.933,-10 117.674,-10"/>
<polygon fill="midnightblue" stroke="midnightblue" points="117.957,-13.5001 127.957,-10 117.957,-6.5001 117.957,-13.5001"/>
</g>
<!-- Node36&#45;&gt;Node36 -->
<g id="edge2" class="edge"><title>Node36&#45;&gt;Node36</title>
<path fill="none" stroke="midnightblue" d="M177.764,-19.7571C166.217,-28.5653 174.129,-38 201.5,-38 219.462,-38 229.044,-33.9368 230.246,-28.6539"/>
<polygon fill="midnightblue" stroke="midnightblue" points="233.192,-26.7532 225.236,-19.7571 227.093,-30.1879 233.192,-26.7532"/>
</g>
</g>
</svg>
