<?xml version="1.0" encoding="UTF-8" standalone="no"?>
<!DOCTYPE svg PUBLIC "-//W3C//DTD SVG 1.1//EN"
 "http://www.w3.org/Graphics/SVG/1.1/DTD/svg11.dtd">
<!-- Generated by graphviz version 2.38.0 (20140413.2041)
 -->
<!-- Title: main Pages: 1 -->
<svg width="229pt" height="160pt"
 viewBox="0.00 0.00 229.00 160.00" xmlns="http://www.w3.org/2000/svg" xmlns:xlink="http://www.w3.org/1999/xlink">
<g id="graph0" class="graph" transform="scale(1 1) rotate(0) translate(4 156)">
<title>main</title>
<!-- Node14 -->
<g id="node1" class="node"><title>Node14</title>
<polygon fill="#bfbfbf" stroke="black" points="0,-57.5 0,-76.5 38,-76.5 38,-57.5 0,-57.5"/>
<text text-anchor="middle" x="19" y="-64.5" font-family="Helvetica,sans-Serif" font-size="10.00">main</text>
</g>
<!-- Node15 -->
<g id="node2" class="node"><title>Node15</title>
<g id="a_node2"><a xlink:href="classOptimizer.html#a17bdb6fc4aa978eea62a3f1ec4216cdc" target="_top" xlink:title="Adaptive quadrature method. ">
<polygon fill="none" stroke="black" points="74,-114.5 74,-133.5 221,-133.5 221,-114.5 74,-114.5"/>
<text text-anchor="middle" x="147.5" y="-121.5" font-family="Helvetica,sans-Serif" font-size="10.00">Optimizer::adaptiveIntegration</text>
</a>
</g>
</g>
<!-- Node14&#45;&gt;Node15 -->
<g id="edge1" class="edge"><title>Node14&#45;&gt;Node15</title>
<path fill="none" stroke="midnightblue" d="M31.2609,-76.7493C41.6993,-85.3234 57.9884,-97.5644 74,-105 79.0894,-107.363 84.5214,-109.47 90.0363,-111.339"/>
<polygon fill="midnightblue" stroke="midnightblue" points="89.4077,-114.809 99.9964,-114.45 91.495,-108.127 89.4077,-114.809"/>
</g>
<!-- Node16 -->
<g id="node3" class="node"><title>Node16</title>
<g id="a_node3"><a xlink:href="main_8cpp.html#aed666376ddffba841f7f501bcf2c05af" target="_top" xlink:title="testRoots">
<polygon fill="none" stroke="black" points="118,-76.5 118,-95.5 177,-95.5 177,-76.5 118,-76.5"/>
<text text-anchor="middle" x="147.5" y="-83.5" font-family="Helvetica,sans-Serif" font-size="10.00">testRoots</text>
</a>
</g>
</g>
<!-- Node14&#45;&gt;Node16 -->
<g id="edge3" class="edge"><title>Node14&#45;&gt;Node16</title>
<path fill="none" stroke="midnightblue" d="M38.1244,-69.7222C56.2156,-72.4395 84.5842,-76.7004 107.759,-80.1813"/>
<polygon fill="midnightblue" stroke="midnightblue" points="107.248,-83.6436 117.657,-81.6678 108.288,-76.7212 107.248,-83.6436"/>
</g>
<!-- Node17 -->
<g id="node4" class="node"><title>Node17</title>
<g id="a_node4"><a xlink:href="main_8cpp.html#a1d9b791e30de68cc45ae7c27a72e7943" target="_top" xlink:title="testMinimization">
<polygon fill="none" stroke="black" points="103.5,-38.5 103.5,-57.5 191.5,-57.5 191.5,-38.5 103.5,-38.5"/>
<text text-anchor="middle" x="147.5" y="-45.5" font-family="Helvetica,sans-Serif" font-size="10.00">testMinimization</text>
</a>
</g>
</g>
<!-- Node14&#45;&gt;Node17 -->
<g id="edge4" class="edge"><title>Node14&#45;&gt;Node17</title>
<path fill="none" stroke="midnightblue" d="M38.1244,-64.2778C52.5521,-62.1108 73.5163,-58.962 93.1699,-56.01"/>
<polygon fill="midnightblue" stroke="midnightblue" points="93.9174,-59.4371 103.287,-54.4906 92.8776,-52.5148 93.9174,-59.4371"/>
</g>
<!-- Node18 -->
<g id="node5" class="node"><title>Node18</title>
<g id="a_node5"><a xlink:href="main_8cpp.html#ae8efb615735344042763dfb3f1aae572" target="_top" xlink:title="testIntegrals">
<polygon fill="none" stroke="black" points="112,-0.5 112,-19.5 183,-19.5 183,-0.5 112,-0.5"/>
<text text-anchor="middle" x="147.5" y="-7.5" font-family="Helvetica,sans-Serif" font-size="10.00">testIntegrals</text>
</a>
</g>
</g>
<!-- Node14&#45;&gt;Node18 -->
<g id="edge5" class="edge"><title>Node14&#45;&gt;Node18</title>
<path fill="none" stroke="midnightblue" d="M31.2609,-57.2507C41.6993,-48.6766 57.9884,-36.4356 74,-29 82.7589,-24.9325 92.5328,-21.6265 101.997,-18.9823"/>
<polygon fill="midnightblue" stroke="midnightblue" points="102.894,-22.3654 111.692,-16.4622 101.133,-15.5906 102.894,-22.3654"/>
</g>
<!-- Node15&#45;&gt;Node15 -->
<g id="edge2" class="edge"><title>Node15&#45;&gt;Node15</title>
<path fill="none" stroke="midnightblue" d="M127.771,-133.757C118.174,-142.565 124.75,-152 147.5,-152 162.074,-152 170.011,-148.128 171.309,-143.029"/>
<polygon fill="midnightblue" stroke="midnightblue" points="174.46,-141.5 167.229,-133.757 168.053,-144.32 174.46,-141.5"/>
</g>
</g>
</svg>
