<?xml version="1.0" encoding="UTF-8" standalone="no"?>
<!DOCTYPE svg PUBLIC "-//W3C//DTD SVG 1.1//EN"
 "http://www.w3.org/Graphics/SVG/1.1/DTD/svg11.dtd">
<!-- Generated by graphviz version 2.38.0 (20140413.2041)
 -->
<!-- Title: testToroid Pages: 1 -->
<svg width="246pt" height="46pt"
 viewBox="0.00 0.00 246.00 46.00" xmlns="http://www.w3.org/2000/svg" xmlns:xlink="http://www.w3.org/1999/xlink">
<g id="graph0" class="graph" transform="scale(1 1) rotate(0) translate(4 42)">
<title>testToroid</title>
<!-- Node46 -->
<g id="node1" class="node"><title>Node46</title>
<polygon fill="#bfbfbf" stroke="black" points="0,-0.5 0,-19.5 59,-19.5 59,-0.5 0,-0.5"/>
<text text-anchor="middle" x="29.5" y="-7.5" font-family="Helvetica,sans-Serif" font-size="10.00">testToroid</text>
</g>
<!-- Node47 -->
<g id="node2" class="node"><title>Node47</title>
<g id="a_node2"><a xlink:href="classOptimizer.html#aa626db2b39521740bf10c20aec3c57ac" target="_top" xlink:title="Optimizer::getExecutionTime">
<polygon fill="none" stroke="black" points="95,-0.5 95,-19.5 238,-19.5 238,-0.5 95,-0.5"/>
<text text-anchor="middle" x="166.5" y="-7.5" font-family="Helvetica,sans-Serif" font-size="10.00">Optimizer::getExecutionTime</text>
</a>
</g>
</g>
<!-- Node46&#45;&gt;Node47 -->
<g id="edge1" class="edge"><title>Node46&#45;&gt;Node47</title>
<path fill="none" stroke="midnightblue" d="M59.13,-10C66.917,-10 75.751,-10 84.9198,-10"/>
<polygon fill="midnightblue" stroke="midnightblue" points="84.9667,-13.5001 94.9666,-10 84.9666,-6.5001 84.9667,-13.5001"/>
</g>
<!-- Node47&#45;&gt;Node47 -->
<g id="edge2" class="edge"><title>Node47&#45;&gt;Node47</title>
<path fill="none" stroke="midnightblue" d="M145.538,-19.7571C135.341,-28.5653 142.328,-38 166.5,-38 181.985,-38 190.418,-34.128 191.798,-29.0292"/>
<polygon fill="midnightblue" stroke="midnightblue" points="194.868,-27.3329 187.462,-19.7571 188.527,-30.2982 194.868,-27.3329"/>
</g>
</g>
</svg>
