<?xml version="1.0" encoding="UTF-8" standalone="no"?>
<!DOCTYPE svg PUBLIC "-//W3C//DTD SVG 1.1//EN"
 "http://www.w3.org/Graphics/SVG/1.1/DTD/svg11.dtd">
<!-- Generated by graphviz version 2.38.0 (20140413.2041)
 -->
<!-- Title: testSingleIntegral Pages: 1 -->
<svg width="279pt" height="46pt"
 viewBox="0.00 0.00 279.00 46.00" xmlns="http://www.w3.org/2000/svg" xmlns:xlink="http://www.w3.org/1999/xlink">
<g id="graph0" class="graph" transform="scale(1 1) rotate(0) translate(4 42)">
<title>testSingleIntegral</title>
<!-- Node37 -->
<g id="node1" class="node"><title>Node37</title>
<polygon fill="#bfbfbf" stroke="black" points="0,-0.5 0,-19.5 92,-19.5 92,-0.5 0,-0.5"/>
<text text-anchor="middle" x="46" y="-7.5" font-family="Helvetica,sans-Serif" font-size="10.00">testSingleIntegral</text>
</g>
<!-- Node38 -->
<g id="node2" class="node"><title>Node38</title>
<g id="a_node2"><a xlink:href="classOptimizer.html#aa626db2b39521740bf10c20aec3c57ac" target="_top" xlink:title="Optimizer::getExecutionTime">
<polygon fill="none" stroke="black" points="128,-0.5 128,-19.5 271,-19.5 271,-0.5 128,-0.5"/>
<text text-anchor="middle" x="199.5" y="-7.5" font-family="Helvetica,sans-Serif" font-size="10.00">Optimizer::getExecutionTime</text>
</a>
</g>
</g>
<!-- Node37&#45;&gt;Node38 -->
<g id="edge1" class="edge"><title>Node37&#45;&gt;Node38</title>
<path fill="none" stroke="midnightblue" d="M92.0448,-10C100.132,-10 108.781,-10 117.524,-10"/>
<polygon fill="midnightblue" stroke="midnightblue" points="117.802,-13.5001 127.802,-10 117.801,-6.5001 117.802,-13.5001"/>
</g>
<!-- Node38&#45;&gt;Node38 -->
<g id="edge2" class="edge"><title>Node38&#45;&gt;Node38</title>
<path fill="none" stroke="midnightblue" d="M176.072,-19.7571C164.675,-28.5653 172.484,-38 199.5,-38 217.229,-38 226.686,-33.9368 227.872,-28.6539"/>
<polygon fill="midnightblue" stroke="midnightblue" points="230.845,-26.7974 222.928,-19.7571 224.726,-30.1981 230.845,-26.7974"/>
</g>
</g>
</svg>
