<?xml version="1.0" encoding="UTF-8" standalone="no"?>
<!DOCTYPE svg PUBLIC "-//W3C//DTD SVG 1.1//EN"
 "http://www.w3.org/Graphics/SVG/1.1/DTD/svg11.dtd">
<!-- Generated by graphviz version 2.38.0 (20140413.2041)
 -->
<!-- Title: test/main.cpp Pages: 1 -->
<svg width="347pt" height="196pt"
 viewBox="0.00 0.00 347.00 196.00" xmlns="http://www.w3.org/2000/svg" xmlns:xlink="http://www.w3.org/1999/xlink">
<g id="graph0" class="graph" transform="scale(1 1) rotate(0) translate(4 192)">
<title>test/main.cpp</title>
<!-- Node0 -->
<g id="node1" class="node"><title>Node0</title>
<polygon fill="#bfbfbf" stroke="black" points="83,-168.5 83,-187.5 159,-187.5 159,-168.5 83,-168.5"/>
<text text-anchor="middle" x="121" y="-175.5" font-family="Helvetica,sans-Serif" font-size="10.00">test/main.cpp</text>
</g>
<!-- Node1 -->
<g id="node2" class="node"><title>Node1</title>
<polygon fill="none" stroke="#bfbfbf" points="0,-112.5 0,-131.5 50,-131.5 50,-112.5 0,-112.5"/>
<text text-anchor="middle" x="25" y="-119.5" font-family="Helvetica,sans-Serif" font-size="10.00">iomanip</text>
</g>
<!-- Node0&#45;&gt;Node1 -->
<g id="edge1" class="edge"><title>Node0&#45;&gt;Node1</title>
<path fill="none" stroke="midnightblue" d="M105.576,-168.324C90.4605,-159.822 67.1846,-146.729 49.5288,-136.797"/>
<polygon fill="midnightblue" stroke="midnightblue" points="50.8175,-133.507 40.3858,-131.655 47.3856,-139.608 50.8175,-133.507"/>
</g>
<!-- Node2 -->
<g id="node3" class="node"><title>Node2</title>
<polygon fill="none" stroke="#bfbfbf" points="68,-112.5 68,-131.5 120,-131.5 120,-112.5 68,-112.5"/>
<text text-anchor="middle" x="94" y="-119.5" font-family="Helvetica,sans-Serif" font-size="10.00">sstream</text>
</g>
<!-- Node0&#45;&gt;Node2 -->
<g id="edge2" class="edge"><title>Node0&#45;&gt;Node2</title>
<path fill="none" stroke="midnightblue" d="M116.541,-168.083C112.846,-160.691 107.477,-149.953 102.906,-140.811"/>
<polygon fill="midnightblue" stroke="midnightblue" points="105.978,-139.13 98.3755,-131.751 99.7172,-142.261 105.978,-139.13"/>
</g>
<!-- Node3 -->
<g id="node4" class="node"><title>Node3</title>
<g id="a_node4"><a xlink:href="FunctionUtils_8hpp.html" target="_top" xlink:title="FunctionUtils.hpp">
<polygon fill="none" stroke="black" points="97.5,-56.5 97.5,-75.5 190.5,-75.5 190.5,-56.5 97.5,-56.5"/>
<text text-anchor="middle" x="144" y="-63.5" font-family="Helvetica,sans-Serif" font-size="10.00">FunctionUtils.hpp</text>
</a>
</g>
</g>
<!-- Node0&#45;&gt;Node3 -->
<g id="edge3" class="edge"><title>Node0&#45;&gt;Node3</title>
<path fill="none" stroke="midnightblue" d="M122.805,-168.368C126.516,-150.617 135.079,-109.666 140.111,-85.5974"/>
<polygon fill="midnightblue" stroke="midnightblue" points="143.583,-86.0961 142.204,-75.5914 136.731,-84.6634 143.583,-86.0961"/>
</g>
<!-- Node7 -->
<g id="node8" class="node"><title>Node7</title>
<g id="a_node8"><a xlink:href="Optimizer_8hpp.html" target="_top" xlink:title="Optimizer.hpp">
<polygon fill="none" stroke="black" points="180.5,-112.5 180.5,-131.5 257.5,-131.5 257.5,-112.5 180.5,-112.5"/>
<text text-anchor="middle" x="219" y="-119.5" font-family="Helvetica,sans-Serif" font-size="10.00">Optimizer.hpp</text>
</a>
</g>
</g>
<!-- Node0&#45;&gt;Node7 -->
<g id="edge7" class="edge"><title>Node0&#45;&gt;Node7</title>
<path fill="none" stroke="midnightblue" d="M136.745,-168.324C152.319,-159.743 176.377,-146.486 194.459,-136.522"/>
<polygon fill="midnightblue" stroke="midnightblue" points="196.224,-139.546 203.294,-131.655 192.846,-133.415 196.224,-139.546"/>
</g>
<!-- Node4 -->
<g id="node5" class="node"><title>Node4</title>
<polygon fill="none" stroke="#bfbfbf" points="157.5,-0.5 157.5,-19.5 216.5,-19.5 216.5,-0.5 157.5,-0.5"/>
<text text-anchor="middle" x="187" y="-7.5" font-family="Helvetica,sans-Serif" font-size="10.00">functional</text>
</g>
<!-- Node3&#45;&gt;Node4 -->
<g id="edge4" class="edge"><title>Node3&#45;&gt;Node4</title>
<path fill="none" stroke="midnightblue" d="M151.101,-56.083C157.237,-48.3768 166.27,-37.0333 173.739,-27.6531"/>
<polygon fill="midnightblue" stroke="midnightblue" points="176.54,-29.7542 180.032,-19.7511 171.064,-25.3936 176.54,-29.7542"/>
</g>
<!-- Node5 -->
<g id="node6" class="node"><title>Node5</title>
<polygon fill="none" stroke="#bfbfbf" points="99,-0.5 99,-19.5 139,-19.5 139,-0.5 99,-0.5"/>
<text text-anchor="middle" x="119" y="-7.5" font-family="Helvetica,sans-Serif" font-size="10.00">limits</text>
</g>
<!-- Node3&#45;&gt;Node5 -->
<g id="edge5" class="edge"><title>Node3&#45;&gt;Node5</title>
<path fill="none" stroke="midnightblue" d="M139.872,-56.083C136.486,-48.77 131.584,-38.1814 127.381,-29.1034"/>
<polygon fill="midnightblue" stroke="midnightblue" points="130.429,-27.3553 123.051,-19.7511 124.077,-30.2962 130.429,-27.3553"/>
</g>
<!-- Node6 -->
<g id="node7" class="node"><title>Node6</title>
<polygon fill="none" stroke="#bfbfbf" points="235,-0.5 235,-19.5 279,-19.5 279,-0.5 235,-0.5"/>
<text text-anchor="middle" x="257" y="-7.5" font-family="Helvetica,sans-Serif" font-size="10.00">cmath</text>
</g>
<!-- Node3&#45;&gt;Node6 -->
<g id="edge6" class="edge"><title>Node3&#45;&gt;Node6</title>
<path fill="none" stroke="midnightblue" d="M161.905,-56.4435C180.254,-47.6751 209.005,-33.9355 230.094,-23.8579"/>
<polygon fill="midnightblue" stroke="midnightblue" points="231.665,-26.9862 239.179,-19.5164 228.647,-20.6703 231.665,-26.9862"/>
</g>
<!-- Node7&#45;&gt;Node3 -->
<g id="edge8" class="edge"><title>Node7&#45;&gt;Node3</title>
<path fill="none" stroke="midnightblue" d="M206.95,-112.324C195.537,-104.107 178.169,-91.6017 164.565,-81.8069"/>
<polygon fill="midnightblue" stroke="midnightblue" points="166.43,-78.8366 156.269,-75.8339 162.34,-84.5174 166.43,-78.8366"/>
</g>
<!-- Node7&#45;&gt;Node4 -->
<g id="edge10" class="edge"><title>Node7&#45;&gt;Node4</title>
<path fill="none" stroke="midnightblue" d="M216.489,-112.368C211.302,-94.5366 199.304,-53.2953 192.315,-29.2717"/>
<polygon fill="midnightblue" stroke="midnightblue" points="195.653,-28.2157 189.499,-19.5914 188.932,-30.1711 195.653,-28.2157"/>
</g>
<!-- Node7&#45;&gt;Node6 -->
<g id="edge9" class="edge"><title>Node7&#45;&gt;Node6</title>
<path fill="none" stroke="midnightblue" d="M221.982,-112.368C228.142,-94.5366 242.389,-53.2953 250.688,-29.2717"/>
<polygon fill="midnightblue" stroke="midnightblue" points="254.075,-30.1862 254.032,-19.5914 247.459,-27.9005 254.075,-30.1862"/>
</g>
<!-- Node8 -->
<g id="node9" class="node"><title>Node8</title>
<polygon fill="none" stroke="#bfbfbf" points="285,-56.5 285,-75.5 339,-75.5 339,-56.5 285,-56.5"/>
<text text-anchor="middle" x="312" y="-63.5" font-family="Helvetica,sans-Serif" font-size="10.00">iostream</text>
</g>
<!-- Node7&#45;&gt;Node8 -->
<g id="edge11" class="edge"><title>Node7&#45;&gt;Node8</title>
<path fill="none" stroke="midnightblue" d="M233.942,-112.324C248.585,-103.822 271.134,-90.7288 288.238,-80.7975"/>
<polygon fill="midnightblue" stroke="midnightblue" points="290.205,-83.7027 297.095,-75.6545 286.69,-77.6491 290.205,-83.7027"/>
</g>
</g>
</svg>
