<?xml version="1.0" encoding="UTF-8" standalone="no"?>
<!DOCTYPE svg PUBLIC "-//W3C//DTD SVG 1.1//EN"
 "http://www.w3.org/Graphics/SVG/1.1/DTD/svg11.dtd">
<!-- Generated by graphviz version 2.38.0 (20140413.2041)
 -->
<!-- Title: main Pages: 1 -->
<svg width="332pt" height="84pt"
 viewBox="0.00 0.00 332.00 84.00" xmlns="http://www.w3.org/2000/svg" xmlns:xlink="http://www.w3.org/1999/xlink">
<g id="graph0" class="graph" transform="scale(1 1) rotate(0) translate(4 80)">
<title>main</title>
<!-- Node20 -->
<g id="node1" class="node"><title>Node20</title>
<polygon fill="#bfbfbf" stroke="black" points="0,-38.5 0,-57.5 38,-57.5 38,-38.5 0,-38.5"/>
<text text-anchor="middle" x="19" y="-45.5" font-family="Helvetica,sans-Serif" font-size="10.00">main</text>
</g>
<!-- Node21 -->
<g id="node2" class="node"><title>Node21</title>
<g id="a_node2"><a xlink:href="classOptimizer.html#aa626db2b39521740bf10c20aec3c57ac" target="_top" xlink:title="Optimizer::getExecutionTime">
<polygon fill="none" stroke="black" points="181,-38.5 181,-57.5 324,-57.5 324,-38.5 181,-38.5"/>
<text text-anchor="middle" x="252.5" y="-45.5" font-family="Helvetica,sans-Serif" font-size="10.00">Optimizer::getExecutionTime</text>
</a>
</g>
</g>
<!-- Node20&#45;&gt;Node21 -->
<g id="edge1" class="edge"><title>Node20&#45;&gt;Node21</title>
<path fill="none" stroke="midnightblue" d="M38.0835,-56.0917C48.3821,-60.2561 61.6564,-64.8918 74,-67 118.488,-74.5983 169.799,-67.4039 205.775,-59.7876"/>
<polygon fill="midnightblue" stroke="midnightblue" points="206.952,-63.112 215.959,-57.5337 205.439,-56.2773 206.952,-63.112"/>
</g>
<!-- Node22 -->
<g id="node3" class="node"><title>Node22</title>
<g id="a_node3"><a xlink:href="main_8cpp.html#ae8efb615735344042763dfb3f1aae572" target="_top" xlink:title="testIntegrals">
<polygon fill="none" stroke="black" points="74,-38.5 74,-57.5 145,-57.5 145,-38.5 74,-38.5"/>
<text text-anchor="middle" x="109.5" y="-45.5" font-family="Helvetica,sans-Serif" font-size="10.00">testIntegrals</text>
</a>
</g>
</g>
<!-- Node20&#45;&gt;Node22 -->
<g id="edge3" class="edge"><title>Node20&#45;&gt;Node22</title>
<path fill="none" stroke="midnightblue" d="M38.3373,-48C45.7679,-48 54.7037,-48 63.6713,-48"/>
<polygon fill="midnightblue" stroke="midnightblue" points="63.7309,-51.5001 73.7308,-48 63.7308,-44.5001 63.7309,-51.5001"/>
</g>
<!-- Node23 -->
<g id="node4" class="node"><title>Node23</title>
<g id="a_node4"><a xlink:href="main_8cpp.html#aa08c7ea573265b34dee0c10024829973" target="_top" xlink:title="testToroid">
<polygon fill="none" stroke="black" points="80,-0.5 80,-19.5 139,-19.5 139,-0.5 80,-0.5"/>
<text text-anchor="middle" x="109.5" y="-7.5" font-family="Helvetica,sans-Serif" font-size="10.00">testToroid</text>
</a>
</g>
</g>
<!-- Node20&#45;&gt;Node23 -->
<g id="edge4" class="edge"><title>Node20&#45;&gt;Node23</title>
<path fill="none" stroke="midnightblue" d="M38.3373,-40.1264C49.3918,-35.3798 63.7778,-29.2027 76.6435,-23.6785"/>
<polygon fill="midnightblue" stroke="midnightblue" points="78.2973,-26.7774 86.1052,-19.6159 75.5355,-20.3453 78.2973,-26.7774"/>
</g>
<!-- Node21&#45;&gt;Node21 -->
<g id="edge2" class="edge"><title>Node21&#45;&gt;Node21</title>
<path fill="none" stroke="midnightblue" d="M230.614,-57.7571C219.966,-66.5653 227.262,-76 252.5,-76 269.063,-76 277.898,-71.9368 279.006,-66.6539"/>
<polygon fill="midnightblue" stroke="midnightblue" points="282.101,-65.0192 274.386,-57.7571 275.888,-68.2449 282.101,-65.0192"/>
</g>
<!-- Node23&#45;&gt;Node21 -->
<g id="edge5" class="edge"><title>Node23&#45;&gt;Node21</title>
<path fill="none" stroke="midnightblue" d="M139.033,-17.6899C158.293,-22.8805 184.123,-29.8418 206.172,-35.784"/>
<polygon fill="midnightblue" stroke="midnightblue" points="205.433,-39.2096 215.999,-38.4325 207.255,-32.4508 205.433,-39.2096"/>
</g>
</g>
</svg>
