<?xml version="1.0" encoding="UTF-8" standalone="no"?>
<!DOCTYPE svg PUBLIC "-//W3C//DTD SVG 1.1//EN"
 "http://www.w3.org/Graphics/SVG/1.1/DTD/svg11.dtd">
<!-- Generated by graphviz version 2.38.0 (20140413.2041)
 -->
<!-- Title: testDoubleVariableMinimization Pages: 1 -->
<svg width="340pt" height="46pt"
 viewBox="0.00 0.00 340.00 46.00" xmlns="http://www.w3.org/2000/svg" xmlns:xlink="http://www.w3.org/1999/xlink">
<g id="graph0" class="graph" transform="scale(1 1) rotate(0) translate(4 42)">
<title>testDoubleVariableMinimization</title>
<!-- Node27 -->
<g id="node1" class="node"><title>Node27</title>
<polygon fill="#bfbfbf" stroke="black" points="0,-0.5 0,-19.5 153,-19.5 153,-0.5 0,-0.5"/>
<text text-anchor="middle" x="76.5" y="-7.5" font-family="Helvetica,sans-Serif" font-size="10.00">testDoubleVariableMinimization</text>
</g>
<!-- Node28 -->
<g id="node2" class="node"><title>Node28</title>
<g id="a_node2"><a xlink:href="classOptimizer.html#aa626db2b39521740bf10c20aec3c57ac" target="_top" xlink:title="Optimizer::getExecutionTime">
<polygon fill="none" stroke="black" points="189,-0.5 189,-19.5 332,-19.5 332,-0.5 189,-0.5"/>
<text text-anchor="middle" x="260.5" y="-7.5" font-family="Helvetica,sans-Serif" font-size="10.00">Optimizer::getExecutionTime</text>
</a>
</g>
</g>
<!-- Node27&#45;&gt;Node28 -->
<g id="edge1" class="edge"><title>Node27&#45;&gt;Node28</title>
<path fill="none" stroke="midnightblue" d="M153.103,-10C161.505,-10 170.086,-10 178.551,-10"/>
<polygon fill="midnightblue" stroke="midnightblue" points="178.797,-13.5001 188.797,-10 178.797,-6.5001 178.797,-13.5001"/>
</g>
<!-- Node28&#45;&gt;Node28 -->
<g id="edge2" class="edge"><title>Node28&#45;&gt;Node28</title>
<path fill="none" stroke="midnightblue" d="M232.14,-19.7571C218.344,-28.5653 227.797,-38 260.5,-38 282.983,-38 294.478,-33.5406 294.983,-27.8913"/>
<polygon fill="midnightblue" stroke="midnightblue" points="297.67,-25.6417 288.86,-19.7571 292.077,-29.8515 297.67,-25.6417"/>
</g>
</g>
</svg>
