<?xml version="1.0" encoding="UTF-8" standalone="no"?>
<!DOCTYPE svg PUBLIC "-//W3C//DTD SVG 1.1//EN"
 "http://www.w3.org/Graphics/SVG/1.1/DTD/svg11.dtd">
<!-- Generated by graphviz version 2.38.0 (20140413.2041)
 -->
<!-- Title: test/main.cpp Pages: 1 -->
<svg width="590pt" height="196pt"
 viewBox="0.00 0.00 589.50 196.00" xmlns="http://www.w3.org/2000/svg" xmlns:xlink="http://www.w3.org/1999/xlink">
<g id="graph0" class="graph" transform="scale(1 1) rotate(0) translate(4 192)">
<title>test/main.cpp</title>
<!-- Node0 -->
<g id="node1" class="node"><title>Node0</title>
<polygon fill="#bfbfbf" stroke="black" points="83,-168.5 83,-187.5 159,-187.5 159,-168.5 83,-168.5"/>
<text text-anchor="middle" x="121" y="-175.5" font-family="Helvetica,sans-Serif" font-size="10.00">test/main.cpp</text>
</g>
<!-- Node1 -->
<g id="node2" class="node"><title>Node1</title>
<polygon fill="none" stroke="#bfbfbf" points="0,-112.5 0,-131.5 50,-131.5 50,-112.5 0,-112.5"/>
<text text-anchor="middle" x="25" y="-119.5" font-family="Helvetica,sans-Serif" font-size="10.00">iomanip</text>
</g>
<!-- Node0&#45;&gt;Node1 -->
<g id="edge1" class="edge"><title>Node0&#45;&gt;Node1</title>
<path fill="none" stroke="midnightblue" d="M105.576,-168.324C90.4605,-159.822 67.1846,-146.729 49.5288,-136.797"/>
<polygon fill="midnightblue" stroke="midnightblue" points="50.8175,-133.507 40.3858,-131.655 47.3856,-139.608 50.8175,-133.507"/>
</g>
<!-- Node2 -->
<g id="node3" class="node"><title>Node2</title>
<polygon fill="none" stroke="#bfbfbf" points="68,-112.5 68,-131.5 120,-131.5 120,-112.5 68,-112.5"/>
<text text-anchor="middle" x="94" y="-119.5" font-family="Helvetica,sans-Serif" font-size="10.00">sstream</text>
</g>
<!-- Node0&#45;&gt;Node2 -->
<g id="edge2" class="edge"><title>Node0&#45;&gt;Node2</title>
<path fill="none" stroke="midnightblue" d="M116.541,-168.083C112.846,-160.691 107.477,-149.953 102.906,-140.811"/>
<polygon fill="midnightblue" stroke="midnightblue" points="105.978,-139.13 98.3755,-131.751 99.7172,-142.261 105.978,-139.13"/>
</g>
<!-- Node3 -->
<g id="node4" class="node"><title>Node3</title>
<g id="a_node4"><a xlink:href="FunctionUtils_8hpp.html" target="_top" xlink:title="FunctionUtils.hpp">
<polygon fill="none" stroke="black" points="20.5,-56.5 20.5,-75.5 113.5,-75.5 113.5,-56.5 20.5,-56.5"/>
<text text-anchor="middle" x="67" y="-63.5" font-family="Helvetica,sans-Serif" font-size="10.00">FunctionUtils.hpp</text>
</a>
</g>
</g>
<!-- Node0&#45;&gt;Node3 -->
<g id="edge3" class="edge"><title>Node0&#45;&gt;Node3</title>
<path fill="none" stroke="midnightblue" d="M124.975,-168.468C130.39,-155.511 138.399,-130.435 129,-112 122,-98.2698 108.634,-87.7496 96.0998,-80.3465"/>
<polygon fill="midnightblue" stroke="midnightblue" points="97.6777,-77.2204 87.2226,-75.5055 94.3263,-83.366 97.6777,-77.2204"/>
</g>
<!-- Node7 -->
<g id="node8" class="node"><title>Node7</title>
<g id="a_node8"><a xlink:href="Optimizer_8hpp.html" target="_top" xlink:title="Optimizer.hpp">
<polygon fill="none" stroke="black" points="256.5,-112.5 256.5,-131.5 333.5,-131.5 333.5,-112.5 256.5,-112.5"/>
<text text-anchor="middle" x="295" y="-119.5" font-family="Helvetica,sans-Serif" font-size="10.00">Optimizer.hpp</text>
</a>
</g>
</g>
<!-- Node0&#45;&gt;Node7 -->
<g id="edge7" class="edge"><title>Node0&#45;&gt;Node7</title>
<path fill="none" stroke="midnightblue" d="M148.571,-168.444C178.097,-159.28 225.118,-144.688 257.883,-134.519"/>
<polygon fill="midnightblue" stroke="midnightblue" points="259.045,-137.823 267.558,-131.516 256.97,-131.138 259.045,-137.823"/>
</g>
<!-- Node4 -->
<g id="node5" class="node"><title>Node4</title>
<polygon fill="none" stroke="#bfbfbf" points="353.5,-0.5 353.5,-19.5 412.5,-19.5 412.5,-0.5 353.5,-0.5"/>
<text text-anchor="middle" x="383" y="-7.5" font-family="Helvetica,sans-Serif" font-size="10.00">functional</text>
</g>
<!-- Node3&#45;&gt;Node4 -->
<g id="edge4" class="edge"><title>Node3&#45;&gt;Node4</title>
<path fill="none" stroke="midnightblue" d="M113.627,-57.0321C175.818,-46.4045 284.85,-27.7724 343.31,-17.7825"/>
<polygon fill="midnightblue" stroke="midnightblue" points="344.004,-21.2147 353.271,-16.0802 342.825,-14.3147 344.004,-21.2147"/>
</g>
<!-- Node5 -->
<g id="node6" class="node"><title>Node5</title>
<polygon fill="none" stroke="#bfbfbf" points="47,-0.5 47,-19.5 87,-19.5 87,-0.5 47,-0.5"/>
<text text-anchor="middle" x="67" y="-7.5" font-family="Helvetica,sans-Serif" font-size="10.00">limits</text>
</g>
<!-- Node3&#45;&gt;Node5 -->
<g id="edge5" class="edge"><title>Node3&#45;&gt;Node5</title>
<path fill="none" stroke="midnightblue" d="M67,-56.083C67,-49.0059 67,-38.8611 67,-29.9865"/>
<polygon fill="midnightblue" stroke="midnightblue" points="70.5001,-29.751 67,-19.7511 63.5001,-29.7511 70.5001,-29.751"/>
</g>
<!-- Node6 -->
<g id="node7" class="node"><title>Node6</title>
<polygon fill="none" stroke="#bfbfbf" points="167,-0.5 167,-19.5 211,-19.5 211,-0.5 167,-0.5"/>
<text text-anchor="middle" x="189" y="-7.5" font-family="Helvetica,sans-Serif" font-size="10.00">cmath</text>
</g>
<!-- Node3&#45;&gt;Node6 -->
<g id="edge6" class="edge"><title>Node3&#45;&gt;Node6</title>
<path fill="none" stroke="midnightblue" d="M86.3313,-56.4435C106.32,-47.5961 137.743,-33.6875 160.564,-23.5865"/>
<polygon fill="midnightblue" stroke="midnightblue" points="162.032,-26.7645 169.759,-19.5164 159.198,-20.3635 162.032,-26.7645"/>
</g>
<!-- Node7&#45;&gt;Node3 -->
<g id="edge8" class="edge"><title>Node7&#45;&gt;Node3</title>
<path fill="none" stroke="midnightblue" d="M258.873,-112.444C219.349,-103.083 155.903,-88.0561 112.887,-77.868"/>
<polygon fill="midnightblue" stroke="midnightblue" points="113.496,-74.4154 102.958,-75.5164 111.882,-81.2269 113.496,-74.4154"/>
</g>
<!-- Node7&#45;&gt;Node4 -->
<g id="edge12" class="edge"><title>Node7&#45;&gt;Node4</title>
<path fill="none" stroke="midnightblue" d="M333.673,-118.746C363.227,-114.752 402.157,-104.083 422,-76 433.534,-59.6767 417.656,-39.844 402.832,-26.4111"/>
<polygon fill="midnightblue" stroke="midnightblue" points="404.775,-23.4699 394.885,-19.6696 400.247,-28.8078 404.775,-23.4699"/>
</g>
<!-- Node7&#45;&gt;Node6 -->
<g id="edge11" class="edge"><title>Node7&#45;&gt;Node6</title>
<path fill="none" stroke="midnightblue" d="M328.068,-112.465C362.833,-101.888 409.823,-82.0287 389,-56 368.347,-30.1839 272.336,-18.1382 221.222,-13.4725"/>
<polygon fill="midnightblue" stroke="midnightblue" points="221.306,-9.96662 211.04,-12.5866 220.699,-16.9403 221.306,-9.96662"/>
</g>
<!-- Node8 -->
<g id="node9" class="node"><title>Node8</title>
<g id="a_node9"><a xlink:href="VolumousObject_8hpp.html" target="_top" xlink:title="VolumousObject.hpp">
<polygon fill="none" stroke="black" points="474.5,-56.5 474.5,-75.5 581.5,-75.5 581.5,-56.5 474.5,-56.5"/>
<text text-anchor="middle" x="528" y="-63.5" font-family="Helvetica,sans-Serif" font-size="10.00">VolumousObject.hpp</text>
</a>
</g>
</g>
<!-- Node7&#45;&gt;Node8 -->
<g id="edge9" class="edge"><title>Node7&#45;&gt;Node8</title>
<path fill="none" stroke="midnightblue" d="M331.92,-112.444C372.395,-103.063 437.421,-87.9926 481.384,-77.8036"/>
<polygon fill="midnightblue" stroke="midnightblue" points="482.302,-81.1839 491.253,-75.5164 480.721,-74.3646 482.302,-81.1839"/>
</g>
<!-- Node10 -->
<g id="node11" class="node"><title>Node10</title>
<polygon fill="none" stroke="#bfbfbf" points="132,-56.5 132,-75.5 186,-75.5 186,-56.5 132,-56.5"/>
<text text-anchor="middle" x="159" y="-63.5" font-family="Helvetica,sans-Serif" font-size="10.00">iostream</text>
</g>
<!-- Node7&#45;&gt;Node10 -->
<g id="edge13" class="edge"><title>Node7&#45;&gt;Node10</title>
<path fill="none" stroke="midnightblue" d="M273.45,-112.444C250.969,-103.517 215.512,-89.4387 190.02,-79.3168"/>
<polygon fill="midnightblue" stroke="midnightblue" points="191.035,-75.9539 180.449,-75.5164 188.451,-82.4598 191.035,-75.9539"/>
</g>
<!-- Node11 -->
<g id="node12" class="node"><title>Node11</title>
<polygon fill="none" stroke="#bfbfbf" points="204.5,-56.5 204.5,-75.5 253.5,-75.5 253.5,-56.5 204.5,-56.5"/>
<text text-anchor="middle" x="229" y="-63.5" font-family="Helvetica,sans-Serif" font-size="10.00">random</text>
</g>
<!-- Node7&#45;&gt;Node11 -->
<g id="edge14" class="edge"><title>Node7&#45;&gt;Node11</title>
<path fill="none" stroke="midnightblue" d="M284.396,-112.324C274.544,-104.263 259.649,-92.0765 247.785,-82.3695"/>
<polygon fill="midnightblue" stroke="midnightblue" points="249.753,-79.4575 239.797,-75.8339 245.32,-84.8752 249.753,-79.4575"/>
</g>
<!-- Node12 -->
<g id="node13" class="node"><title>Node12</title>
<polygon fill="none" stroke="#bfbfbf" points="272,-56.5 272,-75.5 318,-75.5 318,-56.5 272,-56.5"/>
<text text-anchor="middle" x="295" y="-63.5" font-family="Helvetica,sans-Serif" font-size="10.00">chrono</text>
</g>
<!-- Node7&#45;&gt;Node12 -->
<g id="edge15" class="edge"><title>Node7&#45;&gt;Node12</title>
<path fill="none" stroke="midnightblue" d="M295,-112.083C295,-105.006 295,-94.8611 295,-85.9865"/>
<polygon fill="midnightblue" stroke="midnightblue" points="298.5,-85.751 295,-75.7511 291.5,-85.7511 298.5,-85.751"/>
</g>
<!-- Node13 -->
<g id="node14" class="node"><title>Node13</title>
<polygon fill="none" stroke="#bfbfbf" points="336,-56.5 336,-75.5 380,-75.5 380,-56.5 336,-56.5"/>
<text text-anchor="middle" x="358" y="-63.5" font-family="Helvetica,sans-Serif" font-size="10.00">omp.h</text>
</g>
<!-- Node7&#45;&gt;Node13 -->
<g id="edge16" class="edge"><title>Node7&#45;&gt;Node13</title>
<path fill="none" stroke="midnightblue" d="M305.122,-112.324C314.526,-104.263 328.744,-92.0765 340.069,-82.3695"/>
<polygon fill="midnightblue" stroke="midnightblue" points="342.379,-84.9993 347.694,-75.8339 337.823,-79.6844 342.379,-84.9993"/>
</g>
<!-- Node9 -->
<g id="node10" class="node"><title>Node9</title>
<polygon fill="none" stroke="#bfbfbf" points="507.5,-0.5 507.5,-19.5 548.5,-19.5 548.5,-0.5 507.5,-0.5"/>
<text text-anchor="middle" x="528" y="-7.5" font-family="Helvetica,sans-Serif" font-size="10.00">string</text>
</g>
<!-- Node8&#45;&gt;Node9 -->
<g id="edge10" class="edge"><title>Node8&#45;&gt;Node9</title>
<path fill="none" stroke="midnightblue" d="M528,-56.083C528,-49.0059 528,-38.8611 528,-29.9865"/>
<polygon fill="midnightblue" stroke="midnightblue" points="531.5,-29.751 528,-19.7511 524.5,-29.7511 531.5,-29.751"/>
</g>
</g>
</svg>
