<?xml version="1.0" encoding="UTF-8" standalone="no"?>
<!DOCTYPE svg PUBLIC "-//W3C//DTD SVG 1.1//EN"
 "http://www.w3.org/Graphics/SVG/1.1/DTD/svg11.dtd">
<!-- Generated by graphviz version 2.38.0 (20140413.2041)
 -->
<!-- Title: testSingleVariableMinimization Pages: 1 -->
<svg width="340pt" height="46pt"
 viewBox="0.00 0.00 340.00 46.00" xmlns="http://www.w3.org/2000/svg" xmlns:xlink="http://www.w3.org/1999/xlink">
<g id="graph0" class="graph" transform="scale(1 1) rotate(0) translate(4 42)">
<title>testSingleVariableMinimization</title>
<!-- Node41 -->
<g id="node1" class="node"><title>Node41</title>
<polygon fill="#bfbfbf" stroke="black" points="0,-0.5 0,-19.5 149,-19.5 149,-0.5 0,-0.5"/>
<text text-anchor="middle" x="74.5" y="-7.5" font-family="Helvetica,sans-Serif" font-size="10.00">testSingleVariableMinimization</text>
</g>
<!-- Node42 -->
<g id="node2" class="node"><title>Node42</title>
<g id="a_node2"><a xlink:href="classOptimizer.html#a17bdb6fc4aa978eea62a3f1ec4216cdc" target="_top" xlink:title="Adaptive quadrature method. ">
<polygon fill="none" stroke="black" points="185,-0.5 185,-19.5 332,-19.5 332,-0.5 185,-0.5"/>
<text text-anchor="middle" x="258.5" y="-7.5" font-family="Helvetica,sans-Serif" font-size="10.00">Optimizer::adaptiveIntegration</text>
</a>
</g>
</g>
<!-- Node41&#45;&gt;Node42 -->
<g id="edge1" class="edge"><title>Node41&#45;&gt;Node42</title>
<path fill="none" stroke="midnightblue" d="M149.002,-10C157.511,-10 166.232,-10 174.852,-10"/>
<polygon fill="midnightblue" stroke="midnightblue" points="174.907,-13.5001 184.907,-10 174.907,-6.5001 174.907,-13.5001"/>
</g>
<!-- Node42&#45;&gt;Node42 -->
<g id="edge2" class="edge"><title>Node42&#45;&gt;Node42</title>
<path fill="none" stroke="midnightblue" d="M230.14,-19.7571C216.344,-28.5653 225.797,-38 258.5,-38 280.983,-38 292.478,-33.5406 292.983,-27.8913"/>
<polygon fill="midnightblue" stroke="midnightblue" points="295.67,-25.6417 286.86,-19.7571 290.077,-29.8515 295.67,-25.6417"/>
</g>
</g>
</svg>
