<?xml version="1.0" encoding="UTF-8" standalone="no"?>
<!DOCTYPE svg PUBLIC "-//W3C//DTD SVG 1.1//EN"
 "http://www.w3.org/Graphics/SVG/1.1/DTD/svg11.dtd">
<!-- Generated by graphviz version 2.38.0 (20140413.2041)
 -->
<!-- Title: testDoubleVariableMinimization Pages: 1 -->
<svg width="344pt" height="46pt"
 viewBox="0.00 0.00 344.00 46.00" xmlns="http://www.w3.org/2000/svg" xmlns:xlink="http://www.w3.org/1999/xlink">
<g id="graph0" class="graph" transform="scale(1 1) rotate(0) translate(4 42)">
<title>testDoubleVariableMinimization</title>
<!-- Node23 -->
<g id="node1" class="node"><title>Node23</title>
<polygon fill="#bfbfbf" stroke="black" points="0,-0.5 0,-19.5 153,-19.5 153,-0.5 0,-0.5"/>
<text text-anchor="middle" x="76.5" y="-7.5" font-family="Helvetica,sans-Serif" font-size="10.00">testDoubleVariableMinimization</text>
</g>
<!-- Node24 -->
<g id="node2" class="node"><title>Node24</title>
<g id="a_node2"><a xlink:href="classOptimizer.html#a17bdb6fc4aa978eea62a3f1ec4216cdc" target="_top" xlink:title="Adaptive quadrature method. ">
<polygon fill="none" stroke="black" points="189,-0.5 189,-19.5 336,-19.5 336,-0.5 189,-0.5"/>
<text text-anchor="middle" x="262.5" y="-7.5" font-family="Helvetica,sans-Serif" font-size="10.00">Optimizer::adaptiveIntegration</text>
</a>
</g>
</g>
<!-- Node23&#45;&gt;Node24 -->
<g id="edge1" class="edge"><title>Node23&#45;&gt;Node24</title>
<path fill="none" stroke="midnightblue" d="M153.136,-10C161.522,-10 170.095,-10 178.565,-10"/>
<polygon fill="midnightblue" stroke="midnightblue" points="178.825,-13.5001 188.825,-10 178.825,-6.5001 178.825,-13.5001"/>
</g>
<!-- Node24&#45;&gt;Node24 -->
<g id="edge2" class="edge"><title>Node24&#45;&gt;Node24</title>
<path fill="none" stroke="midnightblue" d="M233.832,-19.7571C219.885,-28.5653 229.441,-38 262.5,-38 285.228,-38 296.847,-33.5406 297.357,-27.8913"/>
<polygon fill="midnightblue" stroke="midnightblue" points="300.009,-25.5958 291.168,-19.7571 294.438,-29.8346 300.009,-25.5958"/>
</g>
</g>
</svg>
