<?xml version="1.0" encoding="UTF-8" standalone="no"?>
<!DOCTYPE svg PUBLIC "-//W3C//DTD SVG 1.1//EN"
 "http://www.w3.org/Graphics/SVG/1.1/DTD/svg11.dtd">
<!-- Generated by graphviz version 2.38.0 (20140413.2041)
 -->
<!-- Title: testSingleRoot Pages: 1 -->
<svg width="268pt" height="46pt"
 viewBox="0.00 0.00 268.00 46.00" xmlns="http://www.w3.org/2000/svg" xmlns:xlink="http://www.w3.org/1999/xlink">
<g id="graph0" class="graph" transform="scale(1 1) rotate(0) translate(4 42)">
<title>testSingleRoot</title>
<!-- Node40 -->
<g id="node1" class="node"><title>Node40</title>
<polygon fill="#bfbfbf" stroke="black" points="0,-0.5 0,-19.5 81,-19.5 81,-0.5 0,-0.5"/>
<text text-anchor="middle" x="40.5" y="-7.5" font-family="Helvetica,sans-Serif" font-size="10.00">testSingleRoot</text>
</g>
<!-- Node41 -->
<g id="node2" class="node"><title>Node41</title>
<g id="a_node2"><a xlink:href="classOptimizer.html#aa626db2b39521740bf10c20aec3c57ac" target="_top" xlink:title="Optimizer::getExecutionTime">
<polygon fill="none" stroke="black" points="117,-0.5 117,-19.5 260,-19.5 260,-0.5 117,-0.5"/>
<text text-anchor="middle" x="188.5" y="-7.5" font-family="Helvetica,sans-Serif" font-size="10.00">Optimizer::getExecutionTime</text>
</a>
</g>
</g>
<!-- Node40&#45;&gt;Node41 -->
<g id="edge1" class="edge"><title>Node40&#45;&gt;Node41</title>
<path fill="none" stroke="midnightblue" d="M81.0097,-10C89.0476,-10 97.7772,-10 106.663,-10"/>
<polygon fill="midnightblue" stroke="midnightblue" points="106.734,-13.5001 116.734,-10 106.734,-6.5001 106.734,-13.5001"/>
</g>
<!-- Node41&#45;&gt;Node41 -->
<g id="edge2" class="edge"><title>Node41&#45;&gt;Node41</title>
<path fill="none" stroke="midnightblue" d="M165.689,-19.7571C154.592,-28.5653 162.195,-38 188.5,-38 205.762,-38 214.971,-33.9368 216.126,-28.6539"/>
<polygon fill="midnightblue" stroke="midnightblue" points="219.149,-26.886 211.311,-19.7571 212.992,-30.2176 219.149,-26.886"/>
</g>
</g>
</svg>
