<?xml version="1.0" encoding="UTF-8" standalone="no"?>
<!DOCTYPE svg PUBLIC "-//W3C//DTD SVG 1.1//EN"
 "http://www.w3.org/Graphics/SVG/1.1/DTD/svg11.dtd">
<!-- Generated by graphviz version 2.38.0 (20140413.2041)
 -->
<!-- Title: testSingleRoot Pages: 1 -->
<svg width="272pt" height="46pt"
 viewBox="0.00 0.00 272.00 46.00" xmlns="http://www.w3.org/2000/svg" xmlns:xlink="http://www.w3.org/1999/xlink">
<g id="graph0" class="graph" transform="scale(1 1) rotate(0) translate(4 42)">
<title>testSingleRoot</title>
<!-- Node38 -->
<g id="node1" class="node"><title>Node38</title>
<polygon fill="#bfbfbf" stroke="black" points="0,-0.5 0,-19.5 81,-19.5 81,-0.5 0,-0.5"/>
<text text-anchor="middle" x="40.5" y="-7.5" font-family="Helvetica,sans-Serif" font-size="10.00">testSingleRoot</text>
</g>
<!-- Node39 -->
<g id="node2" class="node"><title>Node39</title>
<g id="a_node2"><a xlink:href="classOptimizer.html#a17bdb6fc4aa978eea62a3f1ec4216cdc" target="_top" xlink:title="Adaptive quadrature method. ">
<polygon fill="none" stroke="black" points="117,-0.5 117,-19.5 264,-19.5 264,-0.5 117,-0.5"/>
<text text-anchor="middle" x="190.5" y="-7.5" font-family="Helvetica,sans-Serif" font-size="10.00">Optimizer::adaptiveIntegration</text>
</a>
</g>
</g>
<!-- Node38&#45;&gt;Node39 -->
<g id="edge1" class="edge"><title>Node38&#45;&gt;Node39</title>
<path fill="none" stroke="midnightblue" d="M81.1613,-10C89.1865,-10 97.9041,-10 106.792,-10"/>
<polygon fill="midnightblue" stroke="midnightblue" points="106.87,-13.5001 116.87,-10 106.87,-6.5001 106.87,-13.5001"/>
</g>
<!-- Node39&#45;&gt;Node39 -->
<g id="edge2" class="edge"><title>Node39&#45;&gt;Node39</title>
<path fill="none" stroke="midnightblue" d="M167.381,-19.7571C156.133,-28.5653 163.84,-38 190.5,-38 207.996,-38 217.329,-33.9368 218.499,-28.6539"/>
<polygon fill="midnightblue" stroke="midnightblue" points="221.497,-26.8417 213.619,-19.7571 215.36,-30.208 221.497,-26.8417"/>
</g>
</g>
</svg>
