<?xml version="1.0" encoding="UTF-8" standalone="no"?>
<!DOCTYPE svg PUBLIC "-//W3C//DTD SVG 1.1//EN"
 "http://www.w3.org/Graphics/SVG/1.1/DTD/svg11.dtd">
<!-- Generated by graphviz version 2.38.0 (20140413.2041)
 -->
<!-- Title: include/Optimizer.hpp Pages: 1 -->
<svg width="267pt" height="140pt"
 viewBox="0.00 0.00 266.50 140.00" xmlns="http://www.w3.org/2000/svg" xmlns:xlink="http://www.w3.org/1999/xlink">
<g id="graph0" class="graph" transform="scale(1 1) rotate(0) translate(4 136)">
<title>include/Optimizer.hpp</title>
<!-- Node0 -->
<g id="node1" class="node"><title>Node0</title>
<polygon fill="#bfbfbf" stroke="black" points="83.5,-112.5 83.5,-131.5 193.5,-131.5 193.5,-112.5 83.5,-112.5"/>
<text text-anchor="middle" x="138.5" y="-119.5" font-family="Helvetica,sans-Serif" font-size="10.00">include/Optimizer.hpp</text>
</g>
<!-- Node1 -->
<g id="node2" class="node"><title>Node1</title>
<g id="a_node2"><a xlink:href="FunctionUtils_8hpp.html" target="_top" xlink:title="FunctionUtils.hpp">
<polygon fill="none" stroke="black" points="55,-56.5 55,-75.5 148,-75.5 148,-56.5 55,-56.5"/>
<text text-anchor="middle" x="101.5" y="-63.5" font-family="Helvetica,sans-Serif" font-size="10.00">FunctionUtils.hpp</text>
</a>
</g>
</g>
<!-- Node0&#45;&gt;Node1 -->
<g id="edge1" class="edge"><title>Node0&#45;&gt;Node1</title>
<path fill="none" stroke="midnightblue" d="M132.39,-112.083C127.218,-104.534 119.654,-93.4948 113.306,-84.2298"/>
<polygon fill="midnightblue" stroke="midnightblue" points="116.036,-82.0221 107.496,-75.7511 110.261,-85.9787 116.036,-82.0221"/>
</g>
<!-- Node2 -->
<g id="node3" class="node"><title>Node2</title>
<polygon fill="none" stroke="#bfbfbf" points="0,-0.5 0,-19.5 59,-19.5 59,-0.5 0,-0.5"/>
<text text-anchor="middle" x="29.5" y="-7.5" font-family="Helvetica,sans-Serif" font-size="10.00">functional</text>
</g>
<!-- Node0&#45;&gt;Node2 -->
<g id="edge6" class="edge"><title>Node0&#45;&gt;Node2</title>
<path fill="none" stroke="midnightblue" d="M104.212,-112.351C84.2944,-105.615 60.2884,-94.2596 45.5,-76 34.8806,-62.8879 31.1602,-43.7415 29.9291,-29.6229"/>
<polygon fill="midnightblue" stroke="midnightblue" points="33.4216,-29.3876 29.3912,-19.5893 26.4316,-29.7623 33.4216,-29.3876"/>
</g>
<!-- Node4 -->
<g id="node5" class="node"><title>Node4</title>
<polygon fill="none" stroke="#bfbfbf" points="146.5,-0.5 146.5,-19.5 190.5,-19.5 190.5,-0.5 146.5,-0.5"/>
<text text-anchor="middle" x="168.5" y="-7.5" font-family="Helvetica,sans-Serif" font-size="10.00">cmath</text>
</g>
<!-- Node0&#45;&gt;Node4 -->
<g id="edge5" class="edge"><title>Node0&#45;&gt;Node4</title>
<path fill="none" stroke="midnightblue" d="M142.617,-112.218C146.663,-103.278 152.76,-88.9329 156.5,-76 160.939,-60.653 164.098,-42.7748 166.058,-29.6572"/>
<polygon fill="midnightblue" stroke="midnightblue" points="169.554,-29.9267 167.472,-19.5384 162.621,-28.9574 169.554,-29.9267"/>
</g>
<!-- Node5 -->
<g id="node6" class="node"><title>Node5</title>
<polygon fill="none" stroke="#bfbfbf" points="204.5,-56.5 204.5,-75.5 258.5,-75.5 258.5,-56.5 204.5,-56.5"/>
<text text-anchor="middle" x="231.5" y="-63.5" font-family="Helvetica,sans-Serif" font-size="10.00">iostream</text>
</g>
<!-- Node0&#45;&gt;Node5 -->
<g id="edge7" class="edge"><title>Node0&#45;&gt;Node5</title>
<path fill="none" stroke="midnightblue" d="M153.442,-112.324C168.085,-103.822 190.634,-90.7288 207.738,-80.7975"/>
<polygon fill="midnightblue" stroke="midnightblue" points="209.705,-83.7027 216.595,-75.6545 206.19,-77.6491 209.705,-83.7027"/>
</g>
<!-- Node1&#45;&gt;Node2 -->
<g id="edge2" class="edge"><title>Node1&#45;&gt;Node2</title>
<path fill="none" stroke="midnightblue" d="M89.932,-56.324C79.0798,-48.1849 62.6193,-35.8395 49.6166,-26.0874"/>
<polygon fill="midnightblue" stroke="midnightblue" points="51.3786,-23.0339 41.2785,-19.8339 47.1785,-28.6339 51.3786,-23.0339"/>
</g>
<!-- Node3 -->
<g id="node4" class="node"><title>Node3</title>
<polygon fill="none" stroke="#bfbfbf" points="81.5,-0.5 81.5,-19.5 121.5,-19.5 121.5,-0.5 81.5,-0.5"/>
<text text-anchor="middle" x="101.5" y="-7.5" font-family="Helvetica,sans-Serif" font-size="10.00">limits</text>
</g>
<!-- Node1&#45;&gt;Node3 -->
<g id="edge3" class="edge"><title>Node1&#45;&gt;Node3</title>
<path fill="none" stroke="midnightblue" d="M101.5,-56.083C101.5,-49.0059 101.5,-38.8611 101.5,-29.9865"/>
<polygon fill="midnightblue" stroke="midnightblue" points="105,-29.751 101.5,-19.7511 98.0001,-29.7511 105,-29.751"/>
</g>
<!-- Node1&#45;&gt;Node4 -->
<g id="edge4" class="edge"><title>Node1&#45;&gt;Node4</title>
<path fill="none" stroke="midnightblue" d="M112.265,-56.324C122.266,-48.2631 137.387,-36.0765 149.43,-26.3695"/>
<polygon fill="midnightblue" stroke="midnightblue" points="151.95,-28.8343 157.539,-19.8339 147.557,-23.3841 151.95,-28.8343"/>
</g>
</g>
</svg>
