<?xml version="1.0" encoding="UTF-8" standalone="no"?>
<!DOCTYPE svg PUBLIC "-//W3C//DTD SVG 1.1//EN"
 "http://www.w3.org/Graphics/SVG/1.1/DTD/svg11.dtd">
<!-- Generated by graphviz version 2.38.0 (20140413.2041)
 -->
<!-- Title: include/Optimizer.hpp Pages: 1 -->
<svg width="587pt" height="140pt"
 viewBox="0.00 0.00 586.50 140.00" xmlns="http://www.w3.org/2000/svg" xmlns:xlink="http://www.w3.org/1999/xlink">
<g id="graph0" class="graph" transform="scale(1 1) rotate(0) translate(4 136)">
<title>include/Optimizer.hpp</title>
<!-- Node0 -->
<g id="node1" class="node"><title>Node0</title>
<polygon fill="#bfbfbf" stroke="black" points="252.5,-112.5 252.5,-131.5 362.5,-131.5 362.5,-112.5 252.5,-112.5"/>
<text text-anchor="middle" x="307.5" y="-119.5" font-family="Helvetica,sans-Serif" font-size="10.00">include/Optimizer.hpp</text>
</g>
<!-- Node1 -->
<g id="node2" class="node"><title>Node1</title>
<g id="a_node2"><a xlink:href="FunctionUtils_8hpp.html" target="_top" xlink:title="FunctionUtils.hpp">
<polygon fill="none" stroke="black" points="55,-56.5 55,-75.5 148,-75.5 148,-56.5 55,-56.5"/>
<text text-anchor="middle" x="101.5" y="-63.5" font-family="Helvetica,sans-Serif" font-size="10.00">FunctionUtils.hpp</text>
</a>
</g>
</g>
<!-- Node0&#45;&gt;Node1 -->
<g id="edge1" class="edge"><title>Node0&#45;&gt;Node1</title>
<path fill="none" stroke="midnightblue" d="M274.859,-112.444C239.45,-103.162 182.791,-88.3093 143.947,-78.127"/>
<polygon fill="midnightblue" stroke="midnightblue" points="144.549,-74.6666 133.989,-75.5164 142.774,-81.4378 144.549,-74.6666"/>
</g>
<!-- Node2 -->
<g id="node3" class="node"><title>Node2</title>
<polygon fill="none" stroke="#bfbfbf" points="0,-0.5 0,-19.5 59,-19.5 59,-0.5 0,-0.5"/>
<text text-anchor="middle" x="29.5" y="-7.5" font-family="Helvetica,sans-Serif" font-size="10.00">functional</text>
</g>
<!-- Node0&#45;&gt;Node2 -->
<g id="edge8" class="edge"><title>Node0&#45;&gt;Node2</title>
<path fill="none" stroke="midnightblue" d="M252.243,-118.474C184.412,-114.223 74.7587,-103.245 45.5,-76 32.8937,-64.2615 29.5215,-44.3265 28.9165,-29.6213"/>
<polygon fill="midnightblue" stroke="midnightblue" points="32.4166,-29.6072 28.8862,-19.6178 25.4166,-29.6284 32.4166,-29.6072"/>
</g>
<!-- Node4 -->
<g id="node5" class="node"><title>Node4</title>
<polygon fill="none" stroke="#bfbfbf" points="146.5,-0.5 146.5,-19.5 190.5,-19.5 190.5,-0.5 146.5,-0.5"/>
<text text-anchor="middle" x="168.5" y="-7.5" font-family="Helvetica,sans-Serif" font-size="10.00">cmath</text>
</g>
<!-- Node0&#45;&gt;Node4 -->
<g id="edge7" class="edge"><title>Node0&#45;&gt;Node4</title>
<path fill="none" stroke="midnightblue" d="M266.267,-112.462C243.273,-105.867 215.523,-94.6165 196.5,-76 183.624,-63.3989 176.312,-43.9094 172.415,-29.556"/>
<polygon fill="midnightblue" stroke="midnightblue" points="175.805,-28.6848 170.064,-19.7801 168.999,-30.3213 175.805,-28.6848"/>
</g>
<!-- Node5 -->
<g id="node6" class="node"><title>Node5</title>
<g id="a_node6"><a xlink:href="VolumousObject_8hpp.html" target="_top" xlink:title="VolumousObject.hpp">
<polygon fill="none" stroke="black" points="205,-56.5 205,-75.5 312,-75.5 312,-56.5 205,-56.5"/>
<text text-anchor="middle" x="258.5" y="-63.5" font-family="Helvetica,sans-Serif" font-size="10.00">VolumousObject.hpp</text>
</a>
</g>
</g>
<!-- Node0&#45;&gt;Node5 -->
<g id="edge5" class="edge"><title>Node0&#45;&gt;Node5</title>
<path fill="none" stroke="midnightblue" d="M299.409,-112.083C292.345,-104.298 281.912,-92.8015 273.351,-83.3665"/>
<polygon fill="midnightblue" stroke="midnightblue" points="275.753,-80.8047 266.441,-75.7511 270.569,-85.5087 275.753,-80.8047"/>
</g>
<!-- Node7 -->
<g id="node8" class="node"><title>Node7</title>
<polygon fill="none" stroke="#bfbfbf" points="330.5,-56.5 330.5,-75.5 384.5,-75.5 384.5,-56.5 330.5,-56.5"/>
<text text-anchor="middle" x="357.5" y="-63.5" font-family="Helvetica,sans-Serif" font-size="10.00">iostream</text>
</g>
<!-- Node0&#45;&gt;Node7 -->
<g id="edge9" class="edge"><title>Node0&#45;&gt;Node7</title>
<path fill="none" stroke="midnightblue" d="M315.756,-112.083C322.965,-104.298 333.61,-92.8015 342.346,-83.3665"/>
<polygon fill="midnightblue" stroke="midnightblue" points="345.171,-85.4666 349.397,-75.7511 340.035,-80.7108 345.171,-85.4666"/>
</g>
<!-- Node8 -->
<g id="node9" class="node"><title>Node8</title>
<polygon fill="none" stroke="#bfbfbf" points="403,-56.5 403,-75.5 452,-75.5 452,-56.5 403,-56.5"/>
<text text-anchor="middle" x="427.5" y="-63.5" font-family="Helvetica,sans-Serif" font-size="10.00">random</text>
</g>
<!-- Node0&#45;&gt;Node8 -->
<g id="edge10" class="edge"><title>Node0&#45;&gt;Node8</title>
<path fill="none" stroke="midnightblue" d="M326.514,-112.444C346.088,-103.636 376.808,-89.8116 399.229,-79.722"/>
<polygon fill="midnightblue" stroke="midnightblue" points="400.892,-82.8119 408.575,-75.5164 398.019,-76.4284 400.892,-82.8119"/>
</g>
<!-- Node9 -->
<g id="node10" class="node"><title>Node9</title>
<polygon fill="none" stroke="#bfbfbf" points="470.5,-56.5 470.5,-75.5 516.5,-75.5 516.5,-56.5 470.5,-56.5"/>
<text text-anchor="middle" x="493.5" y="-63.5" font-family="Helvetica,sans-Serif" font-size="10.00">chrono</text>
</g>
<!-- Node0&#45;&gt;Node9 -->
<g id="edge11" class="edge"><title>Node0&#45;&gt;Node9</title>
<path fill="none" stroke="midnightblue" d="M336.972,-112.444C370.629,-102.672 425.55,-86.7275 460.582,-76.5567"/>
<polygon fill="midnightblue" stroke="midnightblue" points="461.708,-79.8745 470.336,-73.7251 459.757,-73.152 461.708,-79.8745"/>
</g>
<!-- Node10 -->
<g id="node11" class="node"><title>Node10</title>
<polygon fill="none" stroke="#bfbfbf" points="534.5,-56.5 534.5,-75.5 578.5,-75.5 578.5,-56.5 534.5,-56.5"/>
<text text-anchor="middle" x="556.5" y="-63.5" font-family="Helvetica,sans-Serif" font-size="10.00">omp.h</text>
</g>
<!-- Node0&#45;&gt;Node10 -->
<g id="edge12" class="edge"><title>Node0&#45;&gt;Node10</title>
<path fill="none" stroke="midnightblue" d="M354.094,-112.487C396.234,-104.54 460.176,-91.8692 524.328,-76.1461"/>
<polygon fill="midnightblue" stroke="midnightblue" points="525.34,-79.5012 534.206,-73.7007 523.658,-72.7063 525.34,-79.5012"/>
</g>
<!-- Node1&#45;&gt;Node2 -->
<g id="edge2" class="edge"><title>Node1&#45;&gt;Node2</title>
<path fill="none" stroke="midnightblue" d="M89.932,-56.324C79.0798,-48.1849 62.6193,-35.8395 49.6166,-26.0874"/>
<polygon fill="midnightblue" stroke="midnightblue" points="51.3786,-23.0339 41.2785,-19.8339 47.1785,-28.6339 51.3786,-23.0339"/>
</g>
<!-- Node3 -->
<g id="node4" class="node"><title>Node3</title>
<polygon fill="none" stroke="#bfbfbf" points="81.5,-0.5 81.5,-19.5 121.5,-19.5 121.5,-0.5 81.5,-0.5"/>
<text text-anchor="middle" x="101.5" y="-7.5" font-family="Helvetica,sans-Serif" font-size="10.00">limits</text>
</g>
<!-- Node1&#45;&gt;Node3 -->
<g id="edge3" class="edge"><title>Node1&#45;&gt;Node3</title>
<path fill="none" stroke="midnightblue" d="M101.5,-56.083C101.5,-49.0059 101.5,-38.8611 101.5,-29.9865"/>
<polygon fill="midnightblue" stroke="midnightblue" points="105,-29.751 101.5,-19.7511 98.0001,-29.7511 105,-29.751"/>
</g>
<!-- Node1&#45;&gt;Node4 -->
<g id="edge4" class="edge"><title>Node1&#45;&gt;Node4</title>
<path fill="none" stroke="midnightblue" d="M112.265,-56.324C122.266,-48.2631 137.387,-36.0765 149.43,-26.3695"/>
<polygon fill="midnightblue" stroke="midnightblue" points="151.95,-28.8343 157.539,-19.8339 147.557,-23.3841 151.95,-28.8343"/>
</g>
<!-- Node6 -->
<g id="node7" class="node"><title>Node6</title>
<polygon fill="none" stroke="#bfbfbf" points="238,-0.5 238,-19.5 279,-19.5 279,-0.5 238,-0.5"/>
<text text-anchor="middle" x="258.5" y="-7.5" font-family="Helvetica,sans-Serif" font-size="10.00">string</text>
</g>
<!-- Node5&#45;&gt;Node6 -->
<g id="edge6" class="edge"><title>Node5&#45;&gt;Node6</title>
<path fill="none" stroke="midnightblue" d="M258.5,-56.083C258.5,-49.0059 258.5,-38.8611 258.5,-29.9865"/>
<polygon fill="midnightblue" stroke="midnightblue" points="262,-29.751 258.5,-19.7511 255,-29.7511 262,-29.751"/>
</g>
</g>
</svg>
